<svg xmlns="http://www.w3.org/2000/svg" viewBox="0 0 16 15" width="16" height="15">
	<defs>
		<clipPath clipPathUnits="userSpaceOnUse" id="cp1">
			<path d="M-904 -1403L1016 -1403L1016 2390L-904 2390Z" />
		</clipPath>
	</defs>
	<style>
		tspan { white-space:pre }
		.shp0 { fill: #45433c } 
	</style>
	<g id="Креслоназаказ_Стартовая_v1.0" clip-path="url(#cp1)">
		<g id="Products">
			<g id="2_hover">
				<path id="icon" class="shp0" d="M13.85 11.37C13.67 11.21 13.39 11.22 13.23 11.4C12.24 12.51 10.91 13.12 9.49 13.12C7.05 13.12 5.01 11.31 4.44 8.87L9.96 8.87C10.2 8.87 10.4 8.67 10.4 8.43C10.4 8.19 10.2 7.99 9.96 7.99L4.31 7.99C4.29 7.83 4.29 7.67 4.29 7.5C4.29 7.33 4.29 7.17 4.31 7L9.96 7C10.2 7 10.4 6.81 10.4 6.57C10.4 6.32 10.2 6.13 9.96 6.13L4.44 6.13C5.01 3.69 7.05 1.88 9.49 1.88C10.91 1.88 12.24 2.49 13.23 3.59C13.39 3.77 13.67 3.79 13.85 3.63C14.03 3.47 14.05 3.19 13.89 3.01C12.73 1.72 11.16 1 9.49 1C6.57 1 4.13 3.2 3.54 6.13L2.43 6.13C2.19 6.13 1.99 6.32 1.99 6.57C1.99 6.81 2.19 7 2.43 7L3.42 7C3.41 7.17 3.4 7.33 3.4 7.5C3.4 7.67 3.41 7.83 3.42 7.99L2.43 7.99C2.19 7.99 1.99 8.19 1.99 8.43C1.99 8.67 2.19 8.87 2.43 8.87L3.54 8.87C4.13 11.8 6.57 14 9.49 14C11.16 14 12.73 13.28 13.89 11.98C14.05 11.8 14.03 11.53 13.85 11.37Z" />
			</g>
		</g>
	</g>
</svg>