<svg xmlns="http://www.w3.org/2000/svg" viewBox="0 0 15 26" width="15" height="26">
	<defs>
		<clipPath clipPathUnits="userSpaceOnUse" id="cp1">
			<path d="M-1343 -3588L577 -3588L577 205L-1343 205Z" />
		</clipPath>
	</defs>
	<style>
		tspan { white-space:pre }
		.shp0 { fill: #cd9b3e } 
	</style>
	<g id="Креслоназаказ_Стартовая_v1.0" clip-path="url(#cp1)">
		<g id="Footer">
			<path id="icon" class="shp0" d="M6.97 24.99C5.81 24.99 4.61 24.99 4.61 24.99C4.35 24.99 4 24.26 4 24L4 14L2.47 13.98C2.21 13.98 2 13.76 2 13.5L2 10C2 9.46 2.18 9 3 9L4 9L4 7C4 6.28 4.27 4.99 5.12 3.82C5.72 2.98 6.91 1.99 9.15 1.99L12.49 2C12.75 2 12.96 2.21 12.96 2.48L13 6C13 6.67 12.63 7 12 7L11 7C10.67 7 10 7.6 10 8L10 9L12 9C13.02 9 13.01 9.89 13 10L13 13C13 13.68 12.74 13.98 12.15 13.98L10 14L10 24C10 24.7 9.26 25 9 25M9 24L9 14C9 13.52 9.02 13 10 13L12 13L12 10L10 10C9.12 10 9 9.61 9 9L9 8C9 6.86 10.34 6 11 6L12 6L12 3L9 3C7.52 3 6.57 3.42 5.87 4.38C5.16 5.37 5 6.52 5 7L5 9C5 9.61 4.82 10 4 10L3 10L3 13L4 13C4.91 13 5 13.08 5 14L5 24C5 24 6 24 7 24" />
		</g>
	</g>
</svg>