<svg xmlns="http://www.w3.org/2000/svg" viewBox="0 0 24 24" width="24" height="24">
	<defs>
		<clipPath clipPathUnits="userSpaceOnUse" id="cp1">
			<path d="M-1398 -3589L522 -3589L522 204L-1398 204Z" />
		</clipPath>
	</defs>
	<style>
		tspan { white-space:pre }
		.shp0 { fill: #cd9b3e } 
	</style>
	<g id="Креслоназаказ_Стартовая_v1.0" clip-path="url(#cp1)">
		<g id="Footer">
			<path id="icon" class="shp0" d="M17.78 1.99L6.22 1.99C3.88 1.99 1.99 3.88 1.99 6.22L1.99 17.78C1.99 20.11 3.88 22.01 6.22 22.01L17.78 22.01C20.12 22.01 22.01 20.11 22.01 17.78L22.01 6.22C22.01 3.88 20.12 1.99 17.78 1.99ZM20.99 17.78C20.99 19.55 19.55 20.99 17.78 20.99L6.22 20.99C4.45 20.99 3.01 19.55 3.01 17.78L3.01 6.22C3.01 4.45 4.45 3.01 6.22 3.01L17.78 3.01C19.55 3.01 20.99 4.45 20.99 6.22L20.99 17.78L20.99 17.78ZM17.25 11.7C17.1 9.02 14.92 6.87 12.24 6.74C9.15 6.6 6.6 9.15 6.74 12.24C6.87 14.92 9.02 17.1 11.7 17.25C12.83 17.31 13.89 17.02 14.78 16.46C15.05 16.29 15.1 15.91 14.87 15.68C14.86 15.68 14.86 15.68 14.86 15.67C14.69 15.51 14.43 15.48 14.23 15.61C13.57 16.02 12.79 16.25 11.95 16.24C9.6 16.22 7.69 14.24 7.76 11.88C7.83 9.51 9.85 7.61 12.27 7.77C14.36 7.9 16.06 9.56 16.23 11.64C16.3 12.49 16.11 13.29 15.75 13.98C15.64 14.18 15.68 14.42 15.83 14.58C15.84 14.58 15.84 14.59 15.84 14.59C16.08 14.83 16.48 14.77 16.64 14.47C17.08 13.65 17.31 12.7 17.25 11.7ZM17.43 4.53C18.18 4.53 18.79 5.14 18.79 5.89C18.79 6.64 18.18 7.25 17.43 7.25C16.68 7.25 16.07 6.64 16.07 5.89C16.07 5.14 16.68 4.53 17.43 4.53Z" />
		</g>
	</g>
</svg>