<svg xmlns="http://www.w3.org/2000/svg" viewBox="0 0 21 16" width="21" height="16">
	<defs>
		<clipPath clipPathUnits="userSpaceOnUse" id="cp1">
			<path d="M-1324 -3665L596 -3665L596 128L-1324 128Z" />
		</clipPath>
	</defs>
	<style>
		tspan { white-space:pre }
		.shp0 { fill: #cd9b3e } 
	</style>
	<g id="Креслоназаказ_Стартовая_v1.0" clip-path="url(#cp1)">
		<g id="Footer">
			<path id="icon" class="shp0" d="M16.5 14L4.5 14C3.12 14 2 12.88 2 11.51L2 4.49C2 3.12 3.12 2 4.5 2L16.5 2C17.88 2 19 3.12 19 4.49L19 11.51C19 12.88 17.88 14 16.5 14ZM4.5 3C3.67 3 3 3.67 3 4.49L3 11.51C3 12.33 3.67 13 4.5 13L16.5 13C17.33 13 18 12.33 18 11.51L18 4.49C18 3.67 17.33 3 16.5 3L4.5 3ZM10.5 9.51C9.83 9.51 9.17 9.29 8.66 8.85L2.89 3.73C2.68 3.55 2.66 3.23 2.84 3.03C3.02 2.82 3.34 2.8 3.55 2.98L9.32 8.09C9.96 8.65 11.04 8.65 11.68 8.09L17.45 2.98C17.66 2.8 17.97 2.82 18.15 3.03C18.34 3.24 18.31 3.55 18.11 3.73L12.34 8.85C11.83 9.29 11.16 9.51 10.5 9.51Z" />
		</g>
	</g>
</svg>