<svg xmlns="http://www.w3.org/2000/svg" viewBox="0 0 20 25" width="20" height="25">
	<defs>
		<clipPath clipPathUnits="userSpaceOnUse" id="cp1">
			<path d="M-1520 -3588L400 -3588L400 205L-1520 205Z" />
		</clipPath>
	</defs>
	<style>
		tspan { white-space:pre }
		.shp0 { fill: #cd9b3e } 
	</style>
	<g id="Креслоназаказ_Стартовая_v1.0" clip-path="url(#cp1)">
		<g id="Footer">
			<path id="icon" class="shp0" d="M6.04 23.93C5.99 23.93 5.93 23.92 5.87 23.91C5.63 23.84 5.46 23.64 5.43 23.39C5.27 22.34 5.07 20.32 5.47 18.62L6.96 12.23C6.73 11.53 6.61 10.85 6.61 10.22C6.61 8.2 7.82 6.62 9.37 6.62C10.61 6.62 11.44 7.54 11.44 8.9C11.44 9.68 11.15 10.63 10.85 11.64C10.67 12.21 10.5 12.77 10.38 13.31C10.28 13.75 10.36 14.18 10.62 14.51C10.89 14.86 11.33 15.06 11.81 15.06C13.68 15.06 15.13 12.44 15.13 9.09C15.13 6.52 13.41 4.92 10.63 4.92C9.04 4.92 7.67 5.48 6.67 6.53C5.73 7.51 5.22 8.84 5.22 10.25C5.22 11.11 5.43 11.77 5.9 12.32C6.16 12.64 6.29 12.93 6.16 13.42L5.92 14.39C5.85 14.67 5.69 14.88 5.46 15C5.34 15.06 5.21 15.09 5.08 15.09C4.95 15.09 4.83 15.06 4.7 15.01C2.99 14.3 1.97 12.41 1.97 9.95C1.97 8 2.8 6.03 4.24 4.55C5.41 3.35 7.53 1.92 10.96 1.92C13.21 1.92 15.28 2.72 16.77 4.17C18.17 5.54 18.98 7.42 18.98 9.32C18.98 11.74 18.31 13.95 17.1 15.54C15.84 17.18 14.06 18.09 12.08 18.09C11.18 18.09 10.27 17.79 9.57 17.26C9.16 18.04 8.95 18.87 8.83 19.32L8.77 19.56C8.3 21.29 7.06 22.99 6.56 23.65C6.42 23.83 6.24 23.93 6.04 23.93ZM9.37 7.56C8.34 7.56 7.54 8.73 7.54 10.22C7.54 11.18 7.83 11.85 7.87 11.93C7.92 12.02 7.93 12.14 7.9 12.24L6.37 18.84C6.17 19.7 6.11 20.85 6.21 22.07C6.73 21.66 7.51 20.67 7.88 19.31C8.02 18.78 8.7 16.02 8.71 15.99C8.76 15.8 8.92 15.67 9.11 15.65L9.11 15.65C9.33 15.65 9.49 15.73 9.57 15.89C9.88 16.5 10.93 17.15 12.08 17.15C13.79 17.15 15.28 16.39 16.37 14.96C17.45 13.54 18.05 11.54 18.05 9.32C18.05 7.67 17.35 6.04 16.12 4.85C14.81 3.56 12.97 2.86 10.96 2.86C7.85 2.86 5.94 4.14 4.9 5.21C3.62 6.52 2.89 8.24 2.89 9.95C2.89 11.93 3.61 13.43 4.86 14.05L5.13 13.72L5.27 13.18L5.21 12.97C4.6 12.22 4.29 11.32 4.29 10.25C4.29 8.59 4.9 7.04 6 5.88C7.17 4.66 8.81 3.99 10.63 3.99C12.28 3.99 13.67 4.49 14.64 5.44C15.57 6.36 16.06 7.62 16.06 9.09C16.06 10.9 15.67 12.59 14.96 13.85C14.17 15.24 13.05 16 11.81 16C11.04 16 10.34 15.67 9.89 15.09C9.46 14.53 9.31 13.82 9.48 13.09C9.61 12.52 9.79 11.93 9.95 11.41C10.24 10.45 10.52 9.54 10.52 8.9C10.52 8.4 10.37 7.56 9.37 7.56Z" />
		</g>
	</g>
</svg>