<svg xmlns="http://www.w3.org/2000/svg" viewBox="0 0 28 23" width="28" height="23">
	<defs>
		<clipPath clipPathUnits="userSpaceOnUse" id="cp1">
			<path d="M-1456 -3590L464 -3590L464 203L-1456 203Z" />
		</clipPath>
	</defs>
	<style>
		tspan { white-space:pre }
		.shp0 { fill: #cd9b3e } 
	</style>
	<g id="Креслоназаказ_Стартовая_v1.0" clip-path="url(#cp1)">
		<g id="Footer">
			<path id="icon" class="shp0" d="M9.7 21C7.04 21 4.44 20.27 2.2 18.88C2.01 18.76 1.92 18.53 2 18.32C2.07 18.13 2.26 18.01 2.46 18.01C2.87 18.05 3.23 18.07 3.59 18.07C5.02 18.07 6.38 17.76 7.63 17.15L8.03 16.96L7.61 16.71C6.16 16.15 5.06 15.01 4.58 13.57C4.53 13.41 4.57 13.24 4.68 13.11L4.8 13.02L4.78 12.78C3.56 11.73 2.9 10.35 2.9 8.87C2.9 8.66 2.98 8.5 3.14 8.41C3.21 8.37 3.28 8.35 3.35 8.34L3.67 8.32L3.56 7.99C3.15 7.25 2.94 6.43 2.94 5.59C2.94 4.7 3.18 3.82 3.64 3.06C3.72 2.92 3.87 2.84 4.03 2.82C4.21 2.82 4.35 2.88 4.44 3C6.57 5.52 9.58 7.12 12.91 7.51L13.15 7.54C13.21 7.49 13.19 7.1 13.19 7.02C13.19 4.25 15.53 1.99 18.41 1.99C19.71 1.99 20.95 2.45 21.92 3.3C22.91 3.17 23.75 2.88 24.61 2.39C24.69 2.34 24.77 2.32 24.86 2.32C24.97 2.32 25.07 2.36 25.16 2.42C25.32 2.54 25.38 2.75 25.32 2.94C25.22 3.25 25.08 3.56 24.91 3.85L24.63 4.34L25.23 4.19C25.36 4.14 25.43 4.13 25.49 4.13C25.64 4.13 25.77 4.19 25.86 4.29C26 4.46 26.02 4.69 25.9 4.86C25.3 5.73 24.57 6.49 23.73 7.12L23.64 7.53C23.64 10.81 22.33 14.12 20.05 16.61C18.22 18.62 14.94 21 9.7 21ZM4.04 10C4.48 11.47 5.72 12.58 7.27 12.88C7.49 12.92 7.65 13.11 7.66 13.33C7.67 13.55 7.52 13.75 7.3 13.8C6.96 13.89 6.6 13.95 6.25 13.97L5.89 13.99L6.05 14.35C6.82 15.43 8.1 16.09 9.46 16.12C9.67 16.12 9.85 16.25 9.92 16.44C9.98 16.63 9.92 16.84 9.76 16.96C8.46 17.95 6.99 18.58 5.4 18.86L4.65 18.99L5.36 19.33C6.75 19.81 8.21 20.06 9.7 20.06C14.58 20.06 17.63 17.84 19.32 15.99C21.44 13.66 22.66 10.59 22.66 7.55C22.66 7.35 22.66 7.17 22.65 6.99C22.64 6.82 22.71 6.67 22.85 6.58C23.04 6.45 23.22 6.31 23.39 6.17L23.95 5.72L23.19 5.74C23.08 5.76 22.84 5.79 22.83 5.79C22.58 5.79 22.39 5.67 22.32 5.47C22.24 5.26 22.33 5.03 22.53 4.91C22.69 4.82 22.85 4.71 22.99 4.6L23.03 4.58L23.07 4.49L22.88 4.14L22.76 4.18C22.49 4.25 22.22 4.31 21.95 4.37C21.93 4.37 21.92 4.37 21.9 4.37C21.7 4.37 21.59 4.31 21.5 4.23C20.7 3.41 19.57 2.94 18.41 2.94C16.07 2.94 14.17 4.77 14.17 7.02C14.17 7.34 14.21 7.65 14.28 7.95C14.31 8.1 14.28 8.25 14.18 8.37C14.08 8.47 13.95 8.54 13.8 8.54C10.26 8.36 6.95 6.92 4.48 4.46L4.22 4.2L4.05 4.57C3.96 4.9 3.91 5.24 3.91 5.59C3.91 6.96 4.62 8.23 5.8 8.99C5.98 9.11 6.06 9.33 5.99 9.53C5.93 9.73 5.74 9.86 5.53 9.86C5.12 9.85 4.74 9.79 4.35 9.69L3.91 9.59L4.04 10Z" />
		</g>
	</g>
</svg>