<svg xmlns="http://www.w3.org/2000/svg" viewBox="0 0 27 23" width="27" height="23">
	<defs>
		<clipPath clipPathUnits="userSpaceOnUse" id="cp1">
			<path d="M-1577 -63L343 -63L343 3730L-1577 3730Z" />
		</clipPath>
	</defs>
	<style>
		tspan { white-space:pre }
		.shp0 { fill: #cd9b3e } 
	</style>
	<g id="Креслоназаказ_Стартовая_v1.0" clip-path="url(#cp1)">
		<g id="Top">
			<path id="icon" class="shp0" d="M13.5 21.01C12.61 20.35 10.36 18.68 8.12 16.91L7.93 16.75C4.87 14.33 1.99 12.04 1.99 8.08C1.99 4.72 4.68 2 7.99 2C9.95 2 11.7 2.97 13.06 4.83L13.46 5.38L13.95 4.82C15.29 2.97 17.04 2 19.02 2C22.32 2 25.01 4.72 25.01 8.08C25.01 12.04 22.13 14.33 19.08 16.74L18.88 16.91C16.62 18.69 14.23 20.47 13.5 21.01ZM7.99 2.98C5.21 2.98 2.95 5.26 2.95 8.08C2.95 9.65 3.44 10.97 4.52 12.33C5.56 13.63 6.97 14.75 8.47 15.94L8.71 16.13C10.32 17.4 12.02 18.69 13.17 19.55L13.32 19.63L13.55 19.66C15.12 18.58 16.62 17.45 18.29 16.13L18.48 15.97C20.01 14.77 21.44 13.63 22.48 12.33C23.56 10.97 24.05 9.66 24.05 8.08C24.05 5.26 21.79 2.98 19.02 2.98C17.34 2.98 15.89 3.8 14.72 5.41L13.46 7.14L12.28 5.41C11.1 3.8 9.66 2.98 7.99 2.98Z" />
		</g>
	</g>
</svg>