<svg xmlns="http://www.w3.org/2000/svg" viewBox="0 0 21 23" width="21" height="23">
	<defs>
		<clipPath clipPathUnits="userSpaceOnUse" id="cp1">
			<path d="M-1458 -61L462 -61L462 3732L-1458 3732Z" />
		</clipPath>
	</defs>
	<style>
		tspan { white-space:pre }
		.shp0 { fill: #cd9b3e } 
	</style>
	<g id="Креслоназаказ_Стартовая_v1.0" clip-path="url(#cp1)">
		<g id="Top">
			<path id="icon" class="shp0" d="M12.72 21C8.47 21 4.9 17.35 4 13L2 13C1.3 13 1.3 12 2 12L4 12L4 11L2 11C1.28 11 1.29 10 2 10L4 10C4.88 5.32 8.5 1.98 12.72 1.98C15.23 1.98 17.57 3.02 19.3 4.92C19.39 5.02 19.44 5.15 19.43 5.28C19.42 5.42 19.36 5.54 19.26 5.63C19.16 5.71 19.04 5.75 18.92 5.75C18.77 5.75 18.63 5.69 18.53 5.58C16.99 3.91 14.93 2.98 12.72 2.98C9.02 2.98 5.9 6.21 5 10L13 10C13.95 10 13.98 11 13 11L5 11L5 12L13 12C13.9 12 14 13 13 13L5 13C5.74 16.92 8.97 20 12.72 20C14.93 20 16.99 19.07 18.53 17.39C18.62 17.29 18.77 17.22 18.91 17.22C19.04 17.22 19.16 17.27 19.26 17.35C19.36 17.44 19.42 17.56 19.43 17.7C19.44 17.83 19.39 17.96 19.3 18.06C17.57 19.96 15.23 21 12.72 21Z" />
		</g>
	</g>
</svg>