<svg xmlns="http://www.w3.org/2000/svg" viewBox="0 0 25 23" width="25" height="23">
	<defs>
		<clipPath clipPathUnits="userSpaceOnUse" id="cp1">
			<path d="M-1637 -62L283 -62L283 3731L-1637 3731Z" />
		</clipPath>
	</defs>
	<style>
		tspan { white-space:pre }
		.shp0 { fill: #cd9b3e } 
	</style>
	<g id="Креслоназаказ_Стартовая_v1.0" clip-path="url(#cp1)">
		<g id="Top">
			<path id="icon" class="shp0" d="M5.75 6.01L5 3C5 2.08 4.49 1.98 3.87 1.98L2 2L2 3L4 3L7.02 15.6C7.09 15.84 7.31 16.01 7.56 16.01L20 16C20.84 16 20.93 15.24 21 15L24 7C24 6.21 23.72 6 23 6L5.75 6.01ZM23 7L20 15L8 15L6 7.01L23 7ZM18 21.01C16.9 21.01 16 20.1 16 19C16 17.89 16.9 16.99 18 16.99C19.1 16.99 19.99 17.89 19.99 19C19.99 20.1 19.1 21.01 18 21.01ZM18.01 18C17.46 18 17.01 18.45 17.01 19C17.01 19.54 17.46 19.99 18.01 19.99C18.56 19.99 19.01 19.54 19.01 19C19.01 18.45 18.56 18 18.01 18ZM9 21.01C7.9 21.01 7 20.1 7 19C7 17.89 7.9 16.99 9 16.99C10.1 16.99 10.99 17.89 10.99 19C10.99 20.1 10.1 21.01 9 21.01ZM9.01 18C8.46 18 8.01 18.45 8.01 19C8.01 19.54 8.46 19.99 9.01 19.99C9.56 19.99 10.01 19.54 10.01 19C10.01 18.45 9.56 18 9.01 18Z" />
		</g>
	</g>
</svg>