<svg xmlns="http://www.w3.org/2000/svg" viewBox="0 0 52 46" width="52" height="46">
	<defs>
		<clipPath clipPathUnits="userSpaceOnUse" id="cp1">
			<path d="M-934 -34L986 -34L986 3759L-934 3759Z" />
		</clipPath>
	</defs>
	<style>
		tspan { white-space:pre }
		.shp0 { fill: #cd9b3e } 
	</style>
	<g id="Креслоназаказ_Стартовая_v1.0" clip-path="url(#cp1)">
		<g id="Top">
			<path id="logo example" class="shp0" d="M49.48 30.86C48.97 30.55 48.3 30.72 47.99 31.23C46.1 34.36 43.2 37.06 39.57 39.07L36.96 29.05L38.57 28.87C38.85 28.84 39.11 28.69 39.29 28.47C39.47 28.24 39.55 27.95 39.52 27.67L39 22.99C38.95 22.52 38.6 22.14 38.13 22.05C38.03 22.03 35.6 21.55 31.67 21.55C29.82 21.55 27.93 21.66 26.06 21.87C24.02 22.1 22.2 22.43 20.64 22.78C20.57 21.85 20.43 20.5 20.1 18.86C26.13 18.21 33.77 16.78 38.31 13.61C38.8 13.26 38.92 12.58 38.58 12.09C38.24 11.6 37.56 11.47 37.07 11.82C33.72 14.16 27.54 15.9 19.61 16.72C19.25 15.35 18.77 13.85 18.13 12.25C16.8 8.91 15.37 6.22 13.89 4.26C12.77 2.76 12.01 2.24 11.87 2.15C11.58 1.96 11.21 1.92 10.88 2.05L6.14 3.97C5.58 4.19 5.31 4.82 5.53 5.38L13.71 26L14.2 30.42L12.81 40.66C9.37 39.3 6.32 37.34 3.89 34.85C3.47 34.42 2.78 34.42 2.35 34.84C1.93 35.26 1.92 35.95 2.34 36.38C7.7 41.86 15.79 45 24.53 45C29.9 45 35.12 43.79 39.63 41.51C44.05 39.27 47.58 36.11 49.85 32.36C50.16 31.85 49.99 31.18 49.48 30.86ZM26.3 24.03C28.09 23.83 29.9 23.73 31.67 23.73C34.12 23.73 35.96 23.92 36.94 24.06L37.25 26.83L16.25 29.2L15.94 26.43C17.44 25.86 21.19 24.61 26.3 24.03ZM11.09 4.32C11.89 5.11 13.87 7.44 16.12 13.07C17.83 17.33 18.4 21.2 18.5 23.32C17.14 23.69 16.09 24.05 15.37 24.32L7.95 5.58L11.09 4.32ZM14.9 41.39L16.26 31.39L34.79 29.3L37.6 40.07C33.64 41.87 29.15 42.82 24.53 42.82C21.16 42.82 17.91 42.33 14.9 41.39Z" />
		</g>
	</g>
</svg>