<svg xmlns="http://www.w3.org/2000/svg" width="47.969" height="43.031" viewBox="0 0 47.969 43.031">
  <defs>
    <style>
      .cls-1 {
        fill: #cd9b3e;
        fill-rule: evenodd;
      }
    </style>
  </defs>
  <path id="logo_example" data-name="logo example" class="cls-1" d="M983.482,419.863a1.081,1.081,0,0,0-1.488.366,22.413,22.413,0,0,1-8.419,7.845l-2.611-10.022,1.6-.181a1.083,1.083,0,0,0,.726-0.4,1.1,1.1,0,0,0,.23-0.8L973,411.993a1.084,1.084,0,0,0-.866-0.946,35.965,35.965,0,0,0-6.461-.5,50.567,50.567,0,0,0-11.036,1.232,30.81,30.81,0,0,0-.534-3.923c6.028-.646,13.664-2.078,18.207-5.254a1.091,1.091,0,0,0,.27-1.515,1.08,1.08,0,0,0-1.508-.272c-3.356,2.346-9.535,4.077-17.461,4.9a38.2,38.2,0,0,0-1.477-4.469,35.269,35.269,0,0,0-4.24-7.992,9.015,9.015,0,0,0-2.022-2.113,1.079,1.079,0,0,0-.991-0.1l-4.743,1.917a1.089,1.089,0,0,0-.6,1.412L947.706,415l0.5,4.423-1.392,10.24a25.509,25.509,0,0,1-8.922-5.807,1.08,1.08,0,0,0-1.532-.014,1.091,1.091,0,0,0-.014,1.539C941.7,430.857,949.785,434,958.529,434a33.534,33.534,0,0,0,15.1-3.489,24.941,24.941,0,0,0,10.218-9.152A1.091,1.091,0,0,0,983.482,419.863ZM960.3,413.032a48.186,48.186,0,0,1,5.372-.305,39.06,39.06,0,0,1,5.266.333l0.31,2.769-21,2.373-0.309-2.769A44.124,44.124,0,0,1,960.3,413.032Zm-15.216-19.715c0.808,0.788,2.788,3.125,5.038,8.748a33.262,33.262,0,0,1,2.378,10.251c-1.358.375-2.416,0.736-3.128,1l-7.425-18.733Zm3.812,37.077,1.359-10,18.532-2.093,2.807,10.774a31.653,31.653,0,0,1-13.066,2.75A32.535,32.535,0,0,1,948.9,430.394Z" transform="translate(-936.031 -390.969)"/>
</svg>
