<svg xmlns="http://www.w3.org/2000/svg" viewBox="0 0 42 44" width="42" height="44">
	<defs>
		<clipPath clipPathUnits="userSpaceOnUse" id="cp1">
			<path d="M-760 -1163L1160 -1163L1160 2630L-760 2630Z" />
		</clipPath>
	</defs>
	<style>
		tspan { white-space:pre }
		.shp0 { fill: #2a2928 } 
	</style>
	<g id="Креслоназаказ_Стартовая_v1.0" clip-path="url(#cp1)">
		<g id="Products">
			<g id="2_hover">
				<path id="icon" class="shp0" d="M40.43 42.98C40.3 42.98 40.17 42.93 40.08 42.83L29.04 31.16C25.91 33.76 22.15 35.16 18.37 35.16C9.33 35.16 1.97 27.72 1.97 18.56C1.97 9.42 9.33 1.97 18.37 1.97C27.42 1.97 34.77 9.42 34.77 18.56C34.77 22.98 33.07 27.14 29.98 30.28L29.89 30.4L29.88 30.55L40.79 42.13C40.98 42.33 40.98 42.65 40.78 42.84C40.69 42.93 40.56 42.98 40.43 42.98ZM18.37 2.98C9.87 2.98 2.96 9.97 2.96 18.56C2.96 27.16 9.87 34.15 18.37 34.15C26.87 34.15 33.78 27.16 33.78 18.56C33.78 9.97 26.87 2.98 18.37 2.98Z" />
			</g>
		</g>
	</g>
</svg>