<svg width="23" height="23" viewBox="0 0 23 23" fill="none" xmlns="http://www.w3.org/2000/svg">
<g clip-path="url(#clip0)">
<path d="M11.3535 9.6945C14.0306 9.6945 16.2008 7.52421 16.2008 4.84715C16.2008 2.17009 14.0306 0 11.3535 0C8.67644 0 6.50635 2.17029 6.50635 4.84735C6.50936 7.52301 8.67784 9.69149 11.3535 9.6945ZM11.3535 1.02679C13.4636 1.02679 15.1741 2.73723 15.1741 4.84735C15.1741 6.95727 13.4636 8.66772 11.3535 8.66772C9.24357 8.66772 7.53313 6.95727 7.53313 4.84735C7.53554 2.73823 9.24458 1.02919 11.3535 1.02679Z" fill="black"/>
<path d="M11.48 11.4019C6.4999 11.3999 2.46235 15.4376 2.46436 20.4175V22.4865C2.46436 22.7701 2.69418 22.9999 2.97775 22.9999H19.9823C20.2659 22.9999 20.4957 22.7701 20.4957 22.4865V20.4175C20.4979 15.4376 16.4601 11.3999 11.48 11.4019ZM19.4689 21.9731H3.49114V20.4175C3.48392 17.5586 5.00505 14.9138 7.47976 13.4821C9.95448 12.0506 13.0056 12.0506 15.4805 13.4821C17.9552 14.9138 19.4763 17.5586 19.4689 20.4175V21.9731Z" fill="black"/>
</g>
<defs>
<clipPath id="clip0">
<rect width="23" height="23" fill="white"/>
</clipPath>
</defs>
</svg>
