<svg width="183" height="180" viewBox="0 0 183 180" fill="none" xmlns="http://www.w3.org/2000/svg">
<path d="M5.41437 183.249C12.1421 183.249 17.5967 177.786 17.5967 171.048V0.243088H151.602V164.948C151.602 175.056 143.422 183.249 133.329 183.249H5.41437Z" fill="#C1C8D1"/>
<path d="M19.7963 156.7C26.6348 158.973 33.8164 160.204 41.2338 160.204C86.9018 160.204 123.921 114.272 123.921 57.61C123.921 36.6625 118.85 17.1911 110.165 0.95372H19.7963V156.7Z" fill="#F3F4F6"/>
<path d="M18.4088 18.6519H-5.41437V171.056C-5.41437 177.79 -0.0809484 183.249 6.49723 183.249C13.0754 183.249 18.4088 177.79 18.4088 171.056V18.6519Z" fill="#C1C8D1"/>
<path d="M32.0463 13.2037H142.296V62.2037H32.0463V13.2037Z" fill="#96CC7F"/>
<path d="M123.921 132.641V157.141C123.921 162.216 119.808 166.329 114.734 166.329C109.659 166.329 105.546 162.216 105.546 157.141V132.641H123.921Z" fill="#EBF7FE"/>
<path d="M130.046 89.7662L160.671 68.3287V154.079L130.046 132.641V89.7662Z" fill="#EBF7FE"/>
<path d="M148.421 145.504L160.671 154.079V68.3287L148.421 76.9037V145.504Z" fill="#E0747C"/>
<path d="M130.046 132.641H108.609C100.153 132.641 93.2963 125.784 93.2963 117.329V105.079C93.2963 96.6232 100.153 89.7662 108.609 89.7662H130.046V132.641Z" fill="#E0747C"/>
<path d="M32.0463 74.4537H81.0463V129.579H32.0463V74.4537Z" fill="#C1C8D1"/>
<path d="M56.5463 39.2748L46.8933 23.8306C46.1675 22.6699 44.7648 22.137 43.451 22.5076C42.1372 22.8874 41.2338 24.0879 41.2338 25.4537V53.0162H47.3588V36.1327L57.0118 51.5769C57.5814 52.4895 58.5736 53.0162 59.6088 53.0162C59.8905 53.0162 60.1753 52.9764 60.454 52.8968C61.7678 52.5201 62.6713 51.3196 62.6713 49.9537V22.3912H56.5463V39.2748Z" fill="white"/>
<path d="M68.7963 25.4537V49.9537C68.7963 51.6442 70.1683 53.0162 71.8588 53.0162H84.1088V46.8912H74.9213V40.7662H84.1088V34.6412H74.9213V28.5162H84.1088V22.3912H71.8588C70.1683 22.3912 68.7963 23.7632 68.7963 25.4537Z" fill="white"/>
<path d="M102.484 34.0532L102.266 33.505C101.798 32.3413 100.674 31.5787 99.4213 31.5787C98.1687 31.5787 97.0448 32.3413 96.5762 33.502L96.3588 34.0532V22.3912H90.2338V49.9537C90.2338 51.4207 91.275 52.6824 92.7175 52.9611C94.1568 53.2337 95.5931 52.4527 96.1413 51.093L99.4213 42.8855L102.701 51.0899C103.176 52.269 104.312 53.0162 105.546 53.0162C105.736 53.0162 105.932 52.9979 106.125 52.9611C107.568 52.6824 108.609 51.4207 108.609 49.9537V22.3912H102.484V34.0532Z" fill="white"/>
<path d="M123.921 28.5162H133.109V22.3912H123.921C118.856 22.3912 114.734 26.5134 114.734 31.5787C114.734 36.6441 118.856 40.7662 123.921 40.7662C125.609 40.7662 126.984 42.1413 126.984 43.8287C126.984 45.5162 125.609 46.8912 123.921 46.8912H114.734V53.0162H123.921C128.987 53.0162 133.109 48.8941 133.109 43.8287C133.109 38.7634 128.987 34.6412 123.921 34.6412C122.234 34.6412 120.859 33.2662 120.859 31.5787C120.859 29.8913 122.234 28.5162 123.921 28.5162Z" fill="white"/>
<path d="M169.859 102.016H182.109V108.141H169.859V102.016Z" fill="#606060"/>
<path d="M167.664 90.6713L176.851 81.4845L181.182 85.8148L171.995 95.0017L167.664 90.6713Z" fill="#606060"/>
<path d="M167.661 119.501L171.992 115.171L181.179 124.358L176.848 128.688L167.661 119.501Z" fill="#606060"/>
<path d="M28.9838 138.766H96.3588V144.891H28.9838V138.766Z" fill="#606060"/>
<path d="M28.9838 151.016H96.3588V157.141H28.9838V151.016Z" fill="#606060"/>
<path d="M28.9838 163.266H96.3588V169.391H28.9838V163.266Z" fill="#606060"/>
</svg>
