<svg width="196" height="196" viewBox="0 0 196 196" fill="none" xmlns="http://www.w3.org/2000/svg">
<g clip-path="url(#clip0)">
<path d="M141.65 196H-7.57082L7.57719 50.1828H126.497L129.026 74.5183L141.65 196Z" fill="#FF491F"/>
<path d="M69.065 97.3316H151.727L162.259 196H58.5331L69.065 97.3316Z" fill="#ED3618"/>
<path d="M77.3373 97.3316H159.999L170.531 196H66.8069L77.3373 97.3316Z" fill="#FFE14D"/>
<path d="M129.026 74.5183C118.358 71.1029 110.383 61.6523 109.132 50.1828H126.497L129.026 74.5183Z" fill="#ED3618"/>
<path d="M172.638 47.0067C172.638 62.9592 159.706 75.8926 143.754 75.8926C127.801 75.8926 114.869 62.9592 114.869 47.0067C114.869 31.0542 127.801 18.1223 143.754 18.1223C159.706 18.1223 172.638 31.0542 172.638 47.0067Z" fill="#32CC77"/>
<path d="M141.455 64.7626C140.385 64.7626 139.395 64.1824 138.873 63.2433L130.994 49.0598C130.201 47.6333 130.714 45.8343 132.141 45.0418C133.569 44.2493 135.368 44.7637 136.16 46.1902L141.282 55.4091L152.587 32.1503C153.3 30.6833 155.068 30.0702 156.536 30.785C158.005 31.4983 158.616 33.2658 157.901 34.7343L144.113 63.0998C143.631 64.0912 142.638 64.7312 141.536 64.7611C141.509 64.7626 141.482 64.7626 141.455 64.7626Z" fill="#E5E5E5"/>
<path d="M99.1202 67.4004C97.4873 67.4004 96.1654 66.077 96.1654 64.4456V35.0378C96.1654 18.9761 83.0989 5.90967 67.0373 5.90967C50.9756 5.90967 37.9091 18.9761 37.9091 35.0378V64.4456C37.9091 66.077 36.5857 67.4004 34.9543 67.4004C33.3228 67.4004 31.9995 66.077 31.9995 64.4456V35.0378C31.9995 15.7177 47.7172 0 67.0373 0C86.3573 0 102.075 15.7177 102.075 35.0378V64.4456C102.075 66.077 100.752 67.4004 99.1202 67.4004Z" fill="#3C3F4D"/>
<path d="M118.669 156.6C106.474 156.6 96.5542 146.68 96.5542 134.485V115.324C96.5542 113.692 97.8761 112.369 99.5075 112.369C101.14 112.369 102.462 113.692 102.462 115.324V134.485C102.462 143.42 109.733 150.691 118.669 150.691C127.605 150.691 134.874 143.42 134.874 134.485V115.324C134.874 113.692 136.198 112.369 137.829 112.369C139.462 112.369 140.784 113.692 140.784 115.324V134.485C140.784 146.68 130.864 156.6 118.669 156.6Z" fill="#3C3F4D"/>
</g>
<defs>
<clipPath id="clip0">
<rect width="196" height="196" rx="20" fill="white"/>
</clipPath>
</defs>
</svg>
