<svg width="188" height="192" viewBox="0 0 188 192" fill="none" xmlns="http://www.w3.org/2000/svg">
<path d="M70.8968 179.856L55.7009 176.742L46.9082 185.848L16.9352 162.192L36.9251 148.55L58.1802 125.289C61.7421 121.391 68.0391 121.953 70.8534 126.423L96.0353 155.303C99.841 159.668 98.7643 166.415 93.7877 169.379L78.9523 178.213C76.3623 179.779 73.8964 179.912 70.8968 179.856Z" fill="#FFE7CF"/>
<path d="M96.0353 155.303L89.8908 148.255L64.2663 163.526C61.6764 165.091 59.2105 165.224 56.2093 165.169L42.9006 163.737L31.4043 173.61L46.9097 185.848L55.7009 176.74L70.8968 179.857C73.8964 179.91 76.3638 179.779 78.9523 178.213L93.7877 169.379C98.7643 166.415 99.841 159.668 96.0353 155.303Z" fill="#EFD5BD"/>
<path d="M95.2951 155.919C92.3283 151.318 88.714 153.646 85.7472 149.043C82.7804 144.442 86.3947 142.112 83.4279 137.511C80.4596 132.908 76.8468 135.238 73.88 130.635C70.9117 126.031 74.526 123.701 71.5577 119.098C69.7438 116.286 66.4585 110.478 64.4577 109.679L48.4439 117.591L76.3115 161.543C79.03 165.761 84.6541 166.977 88.8725 164.257L94.205 160.821C95.8334 159.769 96.3628 157.592 95.319 155.958C95.3115 155.944 95.304 155.932 95.2951 155.919Z" fill="#344A5D"/>
<path d="M49.2305 124.395L36.65 132.157C34.2634 133.63 31.1336 132.889 29.6607 130.502L22.5487 118.976C21.0758 116.589 21.8175 113.459 24.2041 111.987L36.7846 104.224C38.262 103.313 40.1985 103.771 41.1107 105.248L50.2548 120.069C51.167 121.546 50.7079 123.483 49.2305 124.395Z" fill="#344A5D"/>
<path d="M56.9495 83.2173L31.4147 98.9739C28.0532 101.046 27.0109 105.452 29.0835 108.812L41.6759 129.221C43.75 132.581 48.1538 133.624 51.5154 131.55L77.0502 115.795L157.816 98.2143L108.889 18.9182L56.9495 83.2173Z" fill="#FED066"/>
<path d="M146.288 79.5312L65.9381 97.7881C65.9381 97.7881 38.274 114.856 34.3187 117.298L41.6759 129.221C43.7485 132.581 48.1538 133.624 51.5139 131.55L77.0502 115.795L157.816 98.2143L146.288 79.5312Z" fill="#F5B556"/>
<path d="M77.0502 115.795L51.5139 131.55C48.1538 133.624 43.7485 132.581 41.6759 129.221L29.0835 108.812C27.0094 105.452 28.0531 101.046 31.4132 98.9739L56.9495 83.2173L77.0502 115.795Z" fill="#FD715C"/>
<path d="M65.9381 97.7881C65.9381 97.7881 38.274 114.856 34.3187 117.298L41.6759 129.221C43.7485 132.581 48.1538 133.624 51.5139 131.55L64.2813 123.673L77.0502 115.795L65.9381 97.7881Z" fill="#D83E3A"/>
<path d="M162.661 103.849L159.175 105.999C157.369 107.113 155 106.552 153.886 104.746L101.288 19.5014C100.173 17.6935 100.734 15.3264 102.542 14.2109L106.027 12.0605C107.834 10.945 110.202 11.5057 111.316 13.3136L163.914 98.5582C165.03 100.365 164.468 102.733 162.661 103.849Z" fill="#FD715C"/>
<path d="M163.914 98.5582L155.262 84.5332L145.233 90.7225L153.886 104.746C155 106.552 157.369 107.113 159.175 105.999L162.661 103.849C164.468 102.733 165.03 100.365 163.914 98.5582Z" fill="#D83E3A"/>
<path d="M87.3696 167.524C89.2703 170.636 93.3346 171.619 96.4465 169.716L106.069 163.834C109.18 161.933 110.16 157.872 108.26 154.761C106.359 151.649 102.295 150.669 99.1845 152.569L89.5604 158.452C86.4515 160.353 85.4705 164.414 87.3696 167.524Z" fill="#FFE7CF"/>
<path d="M108.26 154.761C107.481 153.486 106.335 152.575 105.045 152.068C105.383 154.582 104.252 157.176 101.948 158.585L92.3238 164.468C90.4875 165.589 88.3237 165.7 86.465 164.97C86.5831 165.849 86.8777 166.72 87.3697 167.526C89.2703 170.638 93.3347 171.619 96.4465 169.716L106.069 163.834C109.18 161.933 110.159 157.872 108.26 154.761Z" fill="#EFD5BD"/>
<path d="M83.2484 154.534C85.1775 157.694 89.3032 158.69 92.4614 156.759L101.914 150.981C105.07 149.052 106.066 144.929 104.139 141.771C102.21 138.613 98.0839 137.617 94.9257 139.548L85.472 145.326C82.3153 147.255 81.3194 151.377 83.2484 154.534Z" fill="#FFE7CF"/>
<path d="M104.139 141.771C103.37 140.514 102.251 139.606 100.985 139.081C101.306 141.617 100.159 144.224 97.8372 145.643L88.3835 151.421C86.4829 152.583 84.2354 152.678 82.3228 151.887C82.438 152.798 82.7385 153.7 83.2484 154.534C85.1775 157.694 89.3032 158.69 92.4614 156.759L101.914 150.981C105.07 149.052 106.066 144.929 104.139 141.771Z" fill="#EFD5BD"/>
<path d="M76.2023 143.174C78.1313 146.332 82.257 147.329 85.4152 145.399L94.8689 139.619C98.0256 137.69 99.02 133.568 97.0925 130.411C95.1635 127.251 91.0378 126.255 87.8796 128.186L78.4259 133.964C75.2692 135.893 74.2733 140.016 76.2023 143.174Z" fill="#FFE7CF"/>
<path d="M97.0925 130.411C96.3404 129.179 95.2517 128.28 94.0181 127.751C94.2962 130.255 93.1507 132.812 90.8584 134.214L81.4062 139.992C79.4786 141.17 77.1952 141.252 75.2677 140.427C75.3724 141.37 75.6729 142.308 76.2008 143.172C78.1313 146.332 82.2555 147.328 85.4152 145.397L94.8689 139.619C98.0256 137.69 99.02 133.568 97.0925 130.411Z" fill="#EFD5BD"/>
<path d="M69.5599 131.522C71.4889 134.68 75.6146 135.676 78.7728 133.746L88.2265 127.967C91.3832 126.038 92.3791 121.916 90.4501 118.758C88.5211 115.599 84.3954 114.603 81.2372 116.534L71.7835 122.312C68.6268 124.241 67.6324 128.364 69.5599 131.522Z" fill="#FFE7CF"/>
<path d="M90.4501 118.758C89.5634 117.304 88.2086 116.316 86.6982 115.852C87.2754 118.556 86.1375 121.443 83.6462 122.967L74.1925 128.745C72.4878 129.787 70.502 129.97 68.7315 129.425C68.8855 130.148 69.1547 130.857 69.5599 131.522C71.4889 134.68 75.6146 135.676 78.7728 133.746L88.2265 127.967C91.3832 126.038 92.3791 121.916 90.4501 118.758Z" fill="#EFD5BD"/>
<path d="M83.7419 139.628L81.9893 140.699C79.2304 142.386 75.6655 141.577 74.0236 138.894L71.1196 134.145C69.6975 131.821 66.6036 131.13 64.2245 132.606C61.8364 150.135 36.9251 148.55 36.9251 148.55L52.3618 125.3C53.3801 123.538 54.8261 122.049 56.5667 120.969L65.2787 115.566C69.5135 112.941 75.0195 114.167 77.5541 118.303L85.7651 131.703C87.41 134.39 86.5038 137.94 83.7419 139.628Z" fill="#FFE7CF"/>
<path d="M85.7636 131.704L85.6963 131.594C85.2208 132.358 84.5658 133.029 83.7419 133.533L81.9878 134.605C79.2304 136.291 75.6655 135.483 74.0236 132.799L71.1196 128.051C69.6975 125.726 66.6036 125.037 64.2245 126.511C63.2226 133.862 58.7275 140.907 53.7106 145.732C58.7858 143.503 63.2764 139.558 64.2245 132.606C66.6036 131.13 69.6975 131.821 71.1196 134.145L74.0236 138.894C75.6655 141.577 79.2304 142.386 81.9878 140.7L83.7419 139.628C86.5038 137.94 87.41 134.39 85.7636 131.704Z" fill="#EFD5BD"/>
<path d="M47.3912 186.421L22.8373 157.244L30.9228 150.44C31.177 150.226 31.5583 150.259 31.7736 150.513L55.5499 178.768C55.7637 179.022 55.7308 179.403 55.4766 179.619L47.3912 186.421Z" fill="#CDD6DF"/>
<path d="M56.8467 179.239L43.2135 164L34 171.292L48.0539 187L56.7677 180.102C57.0433 179.884 57.0788 179.497 56.8467 179.239Z" fill="#96A4AA"/>
<path d="M148.685 49.5791C147.706 49.5791 146.75 49.0857 146.2 48.1914C145.357 46.8202 145.784 45.0258 147.156 44.1824L162.95 34.467C164.321 33.6236 166.115 34.0513 166.957 35.4226C167.801 36.7923 167.373 38.5867 166.003 39.4301L150.209 49.1455C149.732 49.4401 149.206 49.5791 148.685 49.5791Z" fill="#DBD9D1"/>
<path d="M185.09 73.3659C184.996 73.3659 184.9 73.3614 184.804 73.3524L161.649 71.1019C160.047 70.9464 158.875 69.5228 159.03 67.9198C159.186 66.3197 160.611 65.1444 162.213 65.3029L185.368 67.5519C186.97 67.7074 188.142 69.1325 187.987 70.734C187.84 72.2399 186.572 73.3659 185.09 73.3659Z" fill="#DBD9D1"/>
<path d="M135.432 28.0415C135.081 28.0415 134.723 27.9771 134.376 27.8426C132.877 27.2594 132.135 25.5696 132.718 24.0713L141.152 2.38853C141.735 0.888679 143.425 0.148475 144.923 0.730171C146.423 1.31336 147.166 3.00162 146.583 4.50147L138.149 26.1827C137.701 27.3356 136.598 28.0415 135.432 28.0415Z" fill="#DBD9D1"/>
<path d="M48.8485 185.935L22.4474 155.222C22.2377 154.977 21.8747 154.928 21.6054 155.109L-6.51236 177.121C-7.45106 177.856 -8 178.979 -8 180.166V189.121C-8 191.264 -6.24905 193 -4.08752 193H41.9087C43.0929 193 44.2145 192.467 44.9584 191.551L48.8217 186.782C49.0494 186.548 49.0598 186.181 48.8485 185.935Z" fill="#3C5666"/>
<path d="M48.8295 185.487L35 170L14 193H41.0195C42.3521 193 44 193 45 191.5L49 186.5C49 186.5 49.0673 185.749 48.8295 185.487Z" fill="#194451"/>
</svg>
