<svg width="196" height="196" viewBox="0 0 196 196" fill="none" xmlns="http://www.w3.org/2000/svg">
<g clip-path="url(#clip0)">
<path d="M172.089 105.923H127.834C124.661 105.923 122.089 103.351 122.089 100.178V83.5853C122.089 69.8579 133.256 58.6905 146.982 58.6905H152.939C166.667 58.6905 177.834 69.8594 177.834 83.5853V100.178C177.834 103.351 175.262 105.923 172.089 105.923Z" fill="#78D4EC"/>
<path d="M152.939 58.6905H150.194V105.923H172.089C175.262 105.923 177.834 103.351 177.834 100.178V83.5853C177.834 69.8579 166.667 58.6905 152.939 58.6905Z" fill="#003554"/>
<path d="M150.194 70.1808C139.32 70.1808 130.475 61.3343 130.475 50.46C130.475 39.5858 139.32 30.7392 150.194 30.7392C161.068 30.7392 169.915 39.5858 169.915 50.46C169.915 61.3343 161.068 70.1808 150.194 70.1808Z" fill="#FFDAD6"/>
<path d="M169.915 50.46C169.915 39.5858 161.068 30.7392 150.194 30.7392V70.1808C161.068 70.1808 169.915 61.3343 169.915 50.46Z" fill="#FFB5AC"/>
<path d="M148.042 105.923H92.9993C89.8261 105.923 87.2541 103.351 87.2541 100.178V75.9141C87.2541 62.1867 98.4215 51.0193 112.149 51.0193H128.892C142.62 51.0193 153.787 62.1867 153.787 75.9141V100.178C153.787 103.351 151.215 105.923 148.042 105.923Z" fill="#00C1E4"/>
<path d="M128.894 51.0193H120.81V105.923H148.042C151.215 105.923 153.787 103.351 153.787 100.178V75.9141C153.787 62.1867 142.62 51.0193 128.894 51.0193Z" fill="#006DA6"/>
<path d="M120.81 62.5082C108.058 62.5082 97.6843 52.1334 97.6843 39.3809C97.6843 26.6285 108.058 16.2537 120.81 16.2537C133.562 16.2537 143.937 26.6285 143.937 39.3809C143.937 52.1334 133.562 62.5082 120.81 62.5082Z" fill="#B85E43"/>
<path d="M143.937 39.3809C143.937 26.6285 133.562 16.2537 120.81 16.2537V62.5082C133.562 62.5082 143.937 52.1334 143.937 39.3809Z" fill="#96433C"/>
<path d="M62.95 71.1992C62.1365 71.1992 61.3111 71.0258 60.526 70.6609C57.6505 69.3196 56.4063 65.9012 57.7477 63.0256L63.8069 50.0309C65.1482 47.1553 68.5666 45.9112 71.4407 47.251C74.3163 48.5924 75.5604 52.0108 74.2191 54.8863L68.1599 67.8825C67.1849 69.9716 65.1138 71.1992 62.95 71.1992Z" fill="#CED3E1"/>
<path d="M128.632 136.877C126.47 136.877 124.397 135.649 123.422 133.559C122.081 130.683 123.325 127.265 126.201 125.925L139.197 119.864C142.071 118.523 145.49 119.767 146.831 122.643C148.172 125.52 146.928 128.937 144.052 130.278L131.056 136.339C130.271 136.704 129.446 136.877 128.632 136.877Z" fill="#CED3E1"/>
<path d="M43.6135 169.712C41.0445 172.283 37.6276 173.697 33.9938 173.697C30.3601 173.697 26.9432 172.283 24.3742 169.712C21.8037 167.143 20.389 163.726 20.389 160.092C20.389 156.457 21.8037 153.042 24.3742 150.471L47.8648 126.979L47.3818 121.87L24.5521 99.3434L20.4324 99.8518L-2.90569 123.191C-23.2531 143.537 -23.2531 176.646 -2.90569 196.994C7.26725 207.166 20.6298 212.254 33.9938 212.254C47.3579 212.254 60.7204 207.166 70.8934 196.994L94.6457 173.241L94.0386 168.039L71.8354 146.141L67.2133 146.114L43.6135 169.712Z" fill="#FF6568"/>
<path d="M-2.9057 196.993C7.26724 207.166 20.6298 212.254 33.9938 212.254C47.3579 212.254 60.7204 207.166 70.8934 196.993L94.6457 173.241L94.0221 168.054L71.8474 146.127L67.2133 146.114L43.6135 169.712C41.0445 172.283 37.6276 173.697 33.9938 173.697C30.3601 173.697 26.9432 172.283 24.3727 169.712C24.3637 169.702 24.3547 169.691 24.3443 169.682L-2.93561 196.964C-2.92514 196.973 -2.91617 196.983 -2.9057 196.993Z" fill="#FF282F"/>
<path d="M116.137 143.624L96.9814 124.469C95.9048 123.39 94.4438 122.785 92.92 122.785C91.3963 122.785 89.9338 123.39 88.8571 124.469L75.3376 137.99L75.4393 142.687L98.0103 164.954L102.768 165.117L116.137 151.748C118.38 149.505 118.38 145.867 116.137 143.624Z" fill="#003554"/>
<path d="M69.6164 105.226C71.8609 102.983 71.8609 99.3464 69.6164 97.1019L50.4623 77.9463C48.2177 75.7032 44.581 75.7032 42.338 77.9463L28.5567 91.7275L28.1635 95.276L52.7382 119.579L55.9891 118.855L69.6164 105.226Z" fill="#003554"/>
<path d="M93.5034 121.736L85.3792 129.86L112.812 156.988L120.934 148.863L93.5034 121.736Z" fill="#F3F5FB"/>
<path d="M74.155 102.601L46.7226 75.4739L38.5983 83.5982L66.0307 110.726L74.155 102.601Z" fill="#F3F5FB"/>
</g>
<defs>
<clipPath id="clip0">
<rect width="196" height="196" rx="20" fill="white"/>
</clipPath>
</defs>
</svg>
