<svg width="85" height="101" viewBox="0 0 85 101" fill="none" xmlns="http://www.w3.org/2000/svg">
<path d="M84.8721 75.38V101H6.33211V80.7L41.7521 47.94C44.8321 45.0467 46.8854 42.5733 47.9121 40.52C48.9388 38.4667 49.4521 36.46 49.4521 34.5C49.4521 32.0733 48.6121 30.2067 46.9321 28.9C45.3454 27.5 43.0121 26.8 39.9321 26.8C36.9454 26.8 34.1454 27.5933 31.5321 29.18C28.9188 30.7667 26.9121 33.0067 25.5121 35.9L0.592109 23.44C4.32544 16.44 9.78544 10.9333 16.9721 6.91999C24.1588 2.81333 32.8388 0.759997 43.0121 0.759997C50.7588 0.759997 57.6188 2.02 63.5921 4.54C69.5654 7.05999 74.2321 10.6533 77.5921 15.32C80.9521 19.9867 82.6321 25.3533 82.6321 31.42C82.6321 36.8333 81.4654 41.92 79.1321 46.68C76.8921 51.3467 72.4588 56.6667 65.8321 62.64L51.8321 75.38H84.8721Z" fill="url(#paint0_linear)"/>
<defs>
<linearGradient id="paint0_linear" x1="45" y1="-35" x2="45" y2="136" gradientUnits="userSpaceOnUse">
<stop stop-color="#3E3E3E" stop-opacity="0.54"/>
<stop offset="1" stop-color="white" stop-opacity="0"/>
</linearGradient>
</defs>
</svg>
