<svg width="84" height="101" viewBox="0 0 84 101" fill="none" xmlns="http://www.w3.org/2000/svg">
<path d="M60.082 38.78C67.642 40.6467 73.4286 44.0533 77.442 49C81.5486 53.8533 83.602 59.7333 83.602 66.64C83.602 72.52 81.9686 78.0267 78.702 83.16C75.5286 88.2 70.582 92.3067 63.862 95.48C57.142 98.6533 48.7886 100.24 38.802 100.24C31.8953 100.24 24.9886 99.4933 18.082 98C11.2686 96.5067 5.29529 94.3133 0.161953 91.42L11.362 67.06C15.3753 69.3933 19.6686 71.1667 24.242 72.38C28.9086 73.5933 33.3886 74.2 37.682 74.2C41.5086 74.2 44.5886 73.5467 46.922 72.24C49.2553 70.9333 50.422 69.0667 50.422 66.64C50.422 62.16 46.5486 59.92 38.802 59.92H25.782V39.62L40.202 24.92H5.20195V-6.67572e-06H78.282V20.3L60.082 38.78Z" fill="url(#paint0_linear)"/>
<defs>
<linearGradient id="paint0_linear" x1="44" y1="-38" x2="44" y2="133" gradientUnits="userSpaceOnUse">
<stop stop-color="#3E3E3E" stop-opacity="0.54"/>
<stop offset="1" stop-color="white" stop-opacity="0"/>
</linearGradient>
</defs>
</svg>
