<svg width="20" height="20" viewBox="0 0 20 20" fill="none" xmlns="http://www.w3.org/2000/svg">
<path d="M15.2449 14.5529C16.6703 12.9581 17.4577 10.8935 17.4563 8.75452C17.4563 3.93954 13.538 0.0263672 8.72815 0.0263672C3.91317 0.0263672 0 3.94471 0 8.75452C0 13.5643 3.91814 17.4827 8.72815 17.4827C10.8671 17.4843 12.9317 16.6969 14.5265 15.2712L19.1274 19.8722C19.2231 19.9686 19.3537 20.0219 19.4892 20.0201C19.6244 20.0195 19.7541 19.9666 19.8511 19.8722C19.9464 19.7771 19.9999 19.6479 19.9999 19.513C19.9999 19.3782 19.9464 19.2491 19.8511 19.1539L15.2449 14.5529ZM1.01387 8.75452C1.01387 4.50518 4.47364 1.04541 8.72297 1.04541C12.9725 1.04541 16.4321 4.50518 16.4321 8.75452C16.4321 13.0039 12.9725 16.4636 8.72297 16.4636C4.47364 16.4636 1.01387 13.0039 1.01387 8.75452Z" fill="black"/>
</svg>
