<svg width="65" height="65" viewBox="0 0 65 65" fill="none" xmlns="http://www.w3.org/2000/svg">
<g clip-path="url(#clip0)">
<path d="M42.3621 38.8491C42.1326 38.3054 42.246 37.6769 42.6508 37.2476L47.1162 32.5141C47.9531 31.6268 48.2471 30.3987 47.9025 29.2289C47.558 28.059 46.6455 27.1862 45.4615 26.894L39.0259 25.306C38.58 25.1959 38.2156 24.893 38.0261 24.4748L35.5286 18.9638C34.9718 17.7353 33.7881 16.9722 32.4394 16.9722C31.0907 16.9722 29.9069 17.7354 29.3503 18.9638L26.8528 24.4747C26.6632 24.893 26.2988 25.1959 25.8531 25.306L19.4173 26.894C18.2333 27.1862 17.3207 28.0591 16.9763 29.2289C16.6318 30.3987 16.9258 31.6268 17.7627 32.5141L22.228 37.2476C22.6329 37.6769 22.7462 38.3054 22.5166 38.849L20.6328 43.3097C20.0958 44.5813 20.3572 45.9888 21.3151 46.9827C21.9738 47.6663 22.84 48.0279 23.7364 48.0277C24.1435 48.0277 24.5571 47.9532 24.9601 47.8002L25.6337 47.5448C26.1248 47.3585 26.372 46.8093 26.1858 46.3182C25.9997 45.827 25.4504 45.5797 24.9592 45.766L24.2855 46.0215C23.71 46.2395 23.1119 46.1055 22.6849 45.6625C22.2579 45.2195 22.1459 44.6166 22.3852 44.0497L24.2691 39.5889C24.7918 38.3511 24.5337 36.9196 23.6117 35.9421L19.1465 31.2086C18.7791 30.819 18.6498 30.2797 18.8011 29.766C18.9524 29.2522 19.3532 28.869 19.873 28.7406L26.3089 27.1527C27.3239 26.902 28.1537 26.2122 28.5853 25.2599L31.0828 19.7488C31.331 19.2013 31.8382 18.8742 32.4393 18.8742C33.0405 18.8742 33.5476 19.2012 33.7958 19.7488L36.2933 25.26C36.7249 26.2122 37.5547 26.9021 38.5699 27.1527L45.0056 28.7406C45.5256 28.869 45.9263 29.2522 46.0775 29.766C46.2287 30.2797 46.0997 30.819 45.732 31.2086L41.2666 35.9422C40.3446 36.9196 40.0867 38.3509 40.6093 39.589L42.4931 44.0497C42.7326 44.6166 42.6206 45.2195 42.1936 45.6625C41.7667 46.1057 41.1681 46.2399 40.593 46.0214L33.6421 43.3844C32.8663 43.0902 32.0119 43.0902 31.236 43.3844L28.7582 44.3244C28.267 44.5108 28.0199 45.06 28.2062 45.5511C28.3925 46.0422 28.9417 46.2895 29.4329 46.1032L31.9106 45.1632C32.2512 45.0338 32.6266 45.0338 32.9674 45.1632L39.918 47.8001C41.2086 48.29 42.6052 47.9766 43.5634 46.9827C44.5213 45.9887 44.7825 44.5812 44.2456 43.3097L42.3621 38.8491Z" fill="#4F4F4F"/>
<path d="M16.5342 34.176L12.9339 33.2876C12.8099 33.257 12.7087 33.1728 12.656 33.0565L11.2588 29.9735C10.8785 29.1344 10.07 28.6132 9.14894 28.6132C8.22783 28.6132 7.41934 29.1343 7.03913 29.9735L5.64193 33.0565C5.58917 33.1728 5.48797 33.257 5.36393 33.2876L1.76358 34.176C0.954963 34.3754 0.331633 34.9715 0.0963776 35.7706C-0.138877 36.5697 0.0620088 37.4085 0.633469 38.0144L3.13136 40.6624C3.24398 40.7817 3.27555 40.9565 3.21164 41.1077L2.15787 43.6031C1.7911 44.4718 1.96967 45.4329 2.62382 46.1117C3.07365 46.5785 3.66528 46.8254 4.27758 46.8254C4.5557 46.8254 4.83813 46.7746 5.11333 46.6701L9.0017 45.1949L9.00183 45.1948C9.09644 45.1589 9.20068 45.1588 9.29555 45.1949L13.1839 46.6701C14.0652 47.0041 15.0193 46.7904 15.6736 46.1117C16.3277 45.4328 16.5063 44.4715 16.1395 43.6031L15.0856 41.1078C15.0218 40.9566 15.0534 40.7817 15.1659 40.6624L17.664 38.0144C18.2355 37.4084 18.4364 36.5695 18.201 35.7706C17.9661 34.9715 17.3428 34.3754 16.5342 34.176ZM16.2805 36.709L13.7824 39.3571C13.1528 40.0247 12.9766 41.0024 13.3336 41.8478L14.3875 44.3433C14.4799 44.5623 14.3749 44.7182 14.3041 44.7916C14.2332 44.865 14.0814 44.9759 13.859 44.8914L9.97062 43.4163C9.70569 43.3158 9.42731 43.2656 9.14894 43.2656C8.87056 43.2656 8.59206 43.3158 8.32726 43.4163L8.32739 43.4162L4.43889 44.8914C4.21695 44.976 4.06477 44.8652 3.99387 44.7916C3.92311 44.7182 3.8181 44.5622 3.91055 44.3433L4.96432 41.8478C5.32132 41.0024 5.14516 40.0247 4.51537 39.357L2.01735 36.709C1.87531 36.5584 1.89624 36.3931 1.92135 36.3078C1.94646 36.2226 2.01849 36.0725 2.21938 36.0227L5.81973 35.1344C6.51307 34.9633 7.07984 34.4921 7.37457 33.8417L8.77177 30.7586C8.86765 30.5471 9.04926 30.5155 9.14894 30.5155C9.24862 30.5155 9.43023 30.5471 9.52611 30.7586L10.9233 33.8417C11.218 34.4921 11.7848 34.9634 12.4781 35.1344L16.0785 36.0227C16.2793 36.0725 16.3514 36.2226 16.3765 36.3078C16.4016 36.3931 16.4224 36.5586 16.2805 36.709Z" fill="#4F4F4F"/>
<path d="M64.3718 38.0144C65.2055 37.1305 65.21 35.7393 64.3818 34.8466C64.0243 34.4616 63.4227 34.4391 63.0375 34.7964C62.6525 35.1536 62.6299 35.7555 62.9873 36.1407C63.1164 36.2798 63.1605 36.5261 62.9881 36.7089L60.4903 39.3569C59.8604 40.0245 59.6842 41.0022 60.0412 41.8477L61.0951 44.3432C61.1876 44.5622 61.0825 44.718 61.0119 44.7915C60.9413 44.8649 60.7895 44.976 60.5668 44.8913L56.6783 43.416C56.1485 43.2152 55.5651 43.215 55.0352 43.416L51.1468 44.8913C50.9246 44.9756 50.7725 44.8649 50.7016 44.7915C50.6307 44.718 50.5259 44.5621 50.6183 44.3432L51.6722 41.8477C52.0292 41.0023 51.8531 40.0246 51.2234 39.357L48.7251 36.7089C48.5831 36.5583 48.604 36.3931 48.629 36.3078C48.6541 36.2226 48.7263 36.0725 48.9271 36.0227L52.527 35.1344C53.2206 34.9634 53.7873 34.4923 54.0823 33.8415L55.4795 30.7585C55.5754 30.5469 55.757 30.5154 55.8568 30.5154C55.9566 30.5154 56.1381 30.5469 56.234 30.7585L57.6313 33.8415C57.9262 34.4924 58.4931 34.9635 59.1859 35.1342L59.4756 35.2058C59.9852 35.3321 60.5011 35.0205 60.6271 34.5105C60.7531 34.0006 60.4418 33.485 59.9319 33.359L59.6417 33.2873C59.5179 33.2569 59.4169 33.1727 59.3641 33.0564L57.9668 29.9733C57.5867 29.1344 56.7782 28.613 55.8571 28.613C55.857 28.613 55.857 28.613 55.857 28.613C54.9357 28.613 54.1272 29.1341 53.747 29.9733L52.3498 33.0564C52.2971 33.1727 52.1959 33.2569 52.0718 33.2874L48.4716 34.176C47.6629 34.3755 47.0396 34.9715 46.8044 35.7706C46.5693 36.5696 46.77 37.4084 47.3415 38.0142L49.8396 40.6624C49.9521 40.7816 49.9836 40.9564 49.9198 41.1075L48.8659 43.6032C48.4991 44.4716 48.6778 45.4328 49.332 46.1116C49.9862 46.7904 50.9402 47.0041 51.8216 46.67L55.7098 45.1946C55.8047 45.1588 55.9091 45.1588 56.0037 45.1946L59.8921 46.67C60.1674 46.7743 60.4497 46.8253 60.7278 46.8253C61.3401 46.8253 61.9317 46.5784 62.3817 46.1116C63.0359 45.4327 63.2143 44.4715 62.8477 43.603L61.7938 41.1075C61.73 40.9565 61.7614 40.7819 61.8742 40.6624L64.3718 38.0144Z" fill="#4F4F4F"/>
</g>
<defs>
<clipPath id="clip0">
<rect width="65" height="65" fill="white"/>
</clipPath>
</defs>
</svg>
