<svg width="141" height="41" viewBox="0 0 141 41" fill="none" xmlns="http://www.w3.org/2000/svg">
<path d="M95.6547 24.3187C95.188 23.8115 94.9547 23.1622 94.9547 22.3708C94.9547 21.5592 95.183 20.4584 95.6395 19.0684C96.0961 17.6785 96.6744 16.4559 97.3744 15.4008C98.0745 14.3457 98.7796 13.8181 99.4898 13.8181C99.7536 13.8181 99.9717 13.8942 100.144 14.0464C100.317 14.1986 100.403 14.4167 100.403 14.7008C100.403 14.8834 100.322 15.132 100.159 15.4465C99.997 15.761 99.7333 16.2125 99.368 16.8009C98.7187 17.8763 98.2063 18.8249 97.831 19.6467C97.4556 20.4685 97.2679 21.2446 97.2679 21.9751C97.2679 22.6041 97.3795 23.0303 97.6027 23.2535C97.8259 23.4767 98.1708 23.5883 98.6375 23.5883C100.241 23.5883 101.833 22.036 103.416 18.9315L103.873 19.4184C103.162 21.2041 102.259 22.594 101.164 23.5883C100.068 24.5825 98.8912 25.0797 97.6331 25.0797C96.7809 25.0797 96.1214 24.8235 95.6547 24.3187ZM100.144 11.0484C99.8499 10.8455 99.7028 10.5512 99.7028 10.1657C99.7028 9.69902 99.9615 9.28813 100.479 8.93303C100.996 8.57794 101.549 8.40039 102.138 8.40039C103.01 8.40039 103.447 8.77578 103.447 9.52655C103.447 9.95266 103.213 10.3636 102.746 10.7592C102.28 11.1549 101.773 11.3527 101.225 11.3527C100.799 11.3527 100.438 11.2513 100.144 11.0484Z" fill="#B41529"/>
<path d="M111.086 24.197C110.66 23.8115 110.447 23.3042 110.447 22.6752C110.447 22.4114 110.492 22.107 110.584 21.7621C110.675 21.4171 110.771 21.0722 110.873 20.7272C111.157 19.7938 111.299 19.1039 111.299 18.6575C111.299 18.2517 111.198 17.9524 110.995 17.7596C110.792 17.5669 110.538 17.4705 110.234 17.4705C109.158 17.4705 108.073 18.1452 106.977 19.4945C105.881 20.8439 104.704 22.5534 103.446 24.6231C102.574 24.6231 101.914 24.3289 101.468 23.7404L101.742 22.9795C102.939 20.0779 103.538 17.927 103.538 16.527C103.7 16.3443 103.933 16.1769 104.238 16.0248C104.542 15.8726 104.836 15.7965 105.12 15.7965C105.465 15.7965 105.729 15.8776 105.912 16.04C106.094 16.2023 106.186 16.4255 106.186 16.7096C106.186 17.2574 106.013 18.1604 105.668 19.4184C106.581 18.201 107.53 17.2067 108.514 16.4356C109.498 15.6646 110.467 15.2791 111.421 15.2791C112.232 15.2791 112.861 15.5581 113.308 16.1161C113.754 16.6741 113.977 17.3386 113.977 18.1097C113.977 18.5561 113.922 18.9822 113.81 19.388C113.698 19.7938 113.531 20.2504 113.308 20.7576C112.963 21.6099 112.79 22.249 112.79 22.6752C112.79 22.9795 112.861 23.2027 113.003 23.3448C113.146 23.4868 113.318 23.5578 113.521 23.5578C114.191 23.5578 114.916 23.0962 115.697 22.1729C116.478 21.2497 117.183 20.1591 117.812 18.901L118.33 19.3271C117.599 21.0113 116.793 22.3404 115.91 23.3143C115.028 24.2883 114.018 24.7753 112.882 24.7753C112.111 24.7753 111.512 24.58 111.086 24.197Z" fill="#B41529"/>
<path d="M117.569 24.4709C116.859 23.781 116.504 22.8984 116.504 21.823C116.504 20.6461 116.899 19.3728 117.691 18.0032C118.482 16.6335 119.497 15.4871 120.734 14.5638C121.972 13.6406 123.19 13.179 124.387 13.179C125.016 13.179 125.543 13.3362 125.97 13.6507C126.396 13.9652 126.609 14.4877 126.609 15.2182C126.609 16.1922 126.233 17.1104 125.483 17.9727C124.732 18.8351 123.763 19.5402 122.576 20.0881C121.389 20.6359 120.176 20.9809 118.939 21.1229C118.898 21.3258 118.878 21.5592 118.878 21.823C118.878 22.3505 119.025 22.8781 119.319 23.4057C119.613 23.9332 120.247 24.197 121.221 24.197C122.459 24.197 123.722 23.6948 125.011 22.6904C126.299 21.686 127.339 20.433 128.131 18.9315L128.739 19.4185C127.928 21.2447 126.766 22.7158 125.254 23.8318C123.743 24.9478 122.175 25.5058 120.552 25.5058C119.274 25.5058 118.279 25.1583 117.569 24.4709ZM121.724 19.1141C122.627 18.6068 123.393 17.9829 124.022 17.2422C124.651 16.5016 124.965 15.7762 124.965 15.066C124.965 14.8428 124.925 14.6906 124.843 14.6095C124.762 14.5283 124.63 14.4877 124.448 14.4877C123.859 14.4877 123.215 14.7667 122.515 15.3247C121.815 15.8827 121.171 16.5879 120.582 17.4401C119.994 18.2923 119.558 19.1445 119.274 19.9968C120.004 19.9156 120.821 19.6214 121.724 19.1141Z" fill="#B41529"/>
<path d="M74.0294 39.6868C73.5551 39.4154 73.1823 39.0349 72.9084 38.5479C72.6344 38.061 72.5 37.508 72.5 36.8917C72.5 36.2753 72.637 35.7224 72.9084 35.2354C73.1798 34.7484 73.5526 34.368 74.0294 34.0966C74.5037 33.8252 75.0415 33.6882 75.6426 33.6882C76.122 33.6882 76.5658 33.7795 76.9767 33.9622C77.3876 34.1448 77.7224 34.4136 77.9811 34.7713L77.6768 35.0274C77.4485 34.7104 77.1593 34.472 76.8068 34.3096C76.4542 34.1473 76.0662 34.0662 75.6451 34.0662C75.1252 34.0662 74.6559 34.1854 74.24 34.4263C73.8215 34.6647 73.4943 34.9995 73.2609 35.4257C73.025 35.8518 72.9084 36.3413 72.9084 36.8917C72.9084 37.4446 73.025 37.9341 73.2609 38.3653C73.4968 38.7965 73.824 39.1313 74.24 39.3697C74.6585 39.6082 75.1277 39.7299 75.6451 39.7299C76.0662 39.7299 76.4542 39.6487 76.8068 39.4864C77.1593 39.3241 77.451 39.0857 77.6768 38.7686L77.9811 39.0121C77.7224 39.3697 77.3876 39.6386 76.9767 39.8212C76.5658 40.0038 76.122 40.0951 75.6426 40.0951C75.0415 40.0951 74.5037 39.9582 74.0294 39.6868Z" fill="#B41529"/>
<path d="M80.5784 39.6868C80.1041 39.4154 79.7313 39.0349 79.465 38.5479C79.1986 38.061 79.0642 37.508 79.0642 36.8917C79.0642 36.2753 79.1986 35.7224 79.465 35.2354C79.7313 34.7484 80.1041 34.368 80.5784 34.0966C81.0527 33.8252 81.5828 33.6882 82.1662 33.6882C82.7597 33.6882 83.2898 33.8252 83.7616 34.0966C84.2334 34.368 84.6011 34.7484 84.87 35.2354C85.1389 35.7224 85.2707 36.2753 85.2707 36.8917C85.2707 37.508 85.1363 38.061 84.87 38.5479C84.6011 39.0349 84.2334 39.4154 83.7616 39.6868C83.2898 39.9582 82.7597 40.0951 82.1662 40.0951C81.5828 40.0951 81.0553 39.9582 80.5784 39.6868ZM83.5511 39.3697C83.962 39.1313 84.2841 38.7965 84.52 38.3653C84.7559 37.9341 84.8725 37.4446 84.8725 36.8917C84.8725 36.3413 84.7559 35.8518 84.52 35.4257C84.2841 34.9995 83.962 34.6673 83.5511 34.4263C83.1402 34.1879 82.6811 34.0662 82.1687 34.0662C81.6564 34.0662 81.1973 34.1854 80.7864 34.4263C80.3755 34.6647 80.0534 34.9995 79.8175 35.4257C79.5816 35.8518 79.465 36.3413 79.465 36.8917C79.465 37.4446 79.5816 37.9341 79.8175 38.3653C80.0534 38.7965 80.3755 39.1313 80.7864 39.3697C81.1973 39.6082 81.6564 39.7299 82.1687 39.7299C82.6811 39.7299 83.1402 39.6107 83.5511 39.3697Z" fill="#B41529"/>
<path d="M87.2567 31.0251H87.6575V40.0597H87.2567V31.0251Z" fill="#B41529"/>
<path d="M90.3612 31.0251H90.762V40.0597H90.3612V31.0251Z" fill="#B41529"/>
<path d="M98.678 36.9551H93.1385C93.1462 37.4903 93.273 37.9697 93.5165 38.3907C93.76 38.8117 94.0948 39.1415 94.5209 39.3773C94.947 39.6132 95.4238 39.7299 95.9514 39.7299C96.3826 39.7299 96.7783 39.6513 97.1435 39.4915C97.5087 39.3342 97.808 39.1009 98.0439 38.7914L98.3001 39.0603C98.016 39.3926 97.6711 39.6487 97.2653 39.8263C96.8594 40.0038 96.4206 40.0951 95.9514 40.0951C95.3351 40.0951 94.7847 39.9582 94.3028 39.6868C93.8208 39.4154 93.4404 39.0349 93.1639 38.5479C92.8875 38.061 92.7505 37.508 92.7505 36.8917C92.7505 36.2753 92.8773 35.7224 93.1335 35.2354C93.3896 34.7484 93.7447 34.368 94.1988 34.0966C94.6528 33.8252 95.16 33.6882 95.7206 33.6882C96.2735 33.6882 96.7732 33.8227 97.2247 34.089C97.6761 34.3578 98.0312 34.7307 98.2899 35.2101C98.5487 35.6894 98.6806 36.2322 98.6806 36.841V36.9551H98.678ZM94.4397 34.3857C94.0593 34.6039 93.7549 34.9108 93.5266 35.3039C93.2983 35.697 93.1741 36.1384 93.1487 36.6254H98.2976C98.2646 36.1384 98.1327 35.697 97.9019 35.3039C97.6711 34.9108 97.3667 34.6039 96.9888 34.3857C96.6109 34.1676 96.1873 34.056 95.7155 34.056C95.2488 34.056 94.8227 34.1651 94.4397 34.3857Z" fill="#B41529"/>
<path d="M101.471 39.6868C100.996 39.4154 100.623 39.0349 100.35 38.5479C100.076 38.061 99.9412 37.508 99.9412 36.8917C99.9412 36.2753 100.078 35.7224 100.35 35.2354C100.621 34.7484 100.994 34.368 101.471 34.0966C101.945 33.8252 102.483 33.6882 103.084 33.6882C103.563 33.6882 104.007 33.7795 104.418 33.9622C104.829 34.1448 105.164 34.4136 105.422 34.7713L105.118 35.0274C104.89 34.7104 104.6 34.472 104.248 34.3096C103.895 34.1473 103.507 34.0662 103.086 34.0662C102.566 34.0662 102.097 34.1854 101.681 34.4263C101.263 34.6647 100.935 34.9995 100.702 35.4257C100.466 35.8518 100.35 36.3413 100.35 36.8917C100.35 37.4446 100.466 37.9341 100.702 38.3653C100.938 38.7965 101.265 39.1313 101.681 39.3697C102.1 39.6082 102.569 39.7299 103.086 39.7299C103.507 39.7299 103.895 39.6487 104.248 39.4864C104.6 39.3241 104.892 39.0857 105.118 38.7686L105.422 39.0121C105.164 39.3697 104.829 39.6386 104.418 39.8212C104.007 40.0038 103.563 40.0951 103.084 40.0951C102.483 40.0951 101.945 39.9582 101.471 39.6868Z" fill="#B41529"/>
<path d="M110.389 39.6563C110.241 39.7932 110.056 39.9023 109.828 39.9784C109.6 40.0545 109.366 40.0951 109.123 40.0951C108.611 40.0951 108.215 39.9505 107.936 39.6639C107.657 39.3747 107.515 38.979 107.515 38.4768V34.094H106.323V33.7414H107.515V32.354H107.916V33.7414H109.998V34.094H107.916V38.416C107.916 38.8472 108.022 39.1743 108.233 39.4026C108.443 39.6309 108.753 39.7425 109.158 39.7425C109.564 39.7425 109.904 39.6157 110.181 39.3646L110.389 39.6563Z" fill="#B41529"/>
<path d="M112.093 31.9685C112.012 31.8924 111.971 31.8011 111.971 31.6946C111.971 31.5804 112.009 31.4866 112.088 31.4079C112.164 31.3318 112.26 31.2913 112.374 31.2913C112.481 31.2913 112.572 31.3293 112.653 31.4079C112.735 31.484 112.775 31.5753 112.775 31.6819C112.775 31.7884 112.735 31.8822 112.653 31.9609C112.572 32.042 112.478 32.0826 112.374 32.0826C112.27 32.0826 112.174 32.0446 112.093 31.9685ZM112.179 33.7389H112.58V40.057H112.179V33.7389Z" fill="#B41529"/>
<path d="M116.08 39.6868C115.606 39.4154 115.233 39.0349 114.967 38.5479C114.7 38.061 114.566 37.508 114.566 36.8917C114.566 36.2753 114.7 35.7224 114.967 35.2354C115.233 34.7484 115.606 34.368 116.08 34.0966C116.554 33.8252 117.085 33.6882 117.668 33.6882C118.259 33.6882 118.792 33.8252 119.263 34.0966C119.735 34.368 120.103 34.7484 120.372 35.2354C120.641 35.7224 120.772 36.2753 120.772 36.8917C120.772 37.508 120.638 38.061 120.372 38.5479C120.103 39.0349 119.735 39.4154 119.263 39.6868C118.792 39.9582 118.261 40.0951 117.668 40.0951C117.085 40.0951 116.554 39.9582 116.08 39.6868ZM119.05 39.3697C119.461 39.1313 119.783 38.7965 120.019 38.3653C120.255 37.9341 120.372 37.4446 120.372 36.8917C120.372 36.3413 120.255 35.8518 120.019 35.4257C119.783 34.9995 119.461 34.6673 119.05 34.4263C118.639 34.1879 118.18 34.0662 117.668 34.0662C117.156 34.0662 116.696 34.1854 116.286 34.4263C115.875 34.6647 115.553 34.9995 115.317 35.4257C115.081 35.8518 114.964 36.3413 114.964 36.8917C114.964 37.4446 115.081 37.9341 115.317 38.3653C115.553 38.7965 115.875 39.1313 116.286 39.3697C116.696 39.6082 117.156 39.7299 117.668 39.7299C118.18 39.7299 118.642 39.6107 119.05 39.3697Z" fill="#B41529"/>
<path d="M127.603 34.3782C128.057 34.8373 128.285 35.4917 128.285 36.3439V40.0572H127.885V36.3693C127.885 35.6236 127.697 35.0529 127.319 34.6597C126.941 34.2666 126.403 34.0688 125.706 34.0688C124.92 34.0688 124.298 34.3021 123.844 34.7688C123.39 35.2355 123.162 35.862 123.162 36.6508V40.0597H122.761V33.7416H123.152V35.2888C123.355 34.7942 123.682 34.4036 124.131 34.1195C124.582 33.8354 125.12 33.6934 125.744 33.6934C126.528 33.6908 127.149 33.9217 127.603 34.3782Z" fill="#B41529"/>
<path d="M58.7096 2.75195C58.2785 2.75195 57.5708 2.7342 57.1396 2.70883C55.4047 2.59723 48.838 2.70376 40.3817 9.38206C33.7998 14.5817 26.637 16.0933 22.8096 16.5296H7.07898V16.0122C7.07898 15.5024 6.66301 15.0864 6.1532 15.0864H4.05561C3.5458 15.0864 3.12983 15.5024 3.12983 16.0122V16.5296H1.87178C0.984049 16.5296 0.256104 17.255 0.256104 18.1453V24.6029C0.256104 25.4906 0.981512 26.2186 1.87178 26.2186H3.12983V26.736C3.12983 27.2458 3.5458 27.6618 4.05561 27.6618H6.1532C6.66301 27.6618 7.07898 27.2458 7.07898 26.736V26.2186H20.0196V26.2287C20.0196 26.2287 30.7181 25.8102 40.2879 33.3661C48.7442 40.0444 55.3109 40.151 57.0458 40.0394C57.477 40.0115 58.1846 39.9962 58.6158 39.9962C65.8901 39.9962 71.7898 34.1093 71.8101 26.8375L71.8709 2.75449H58.7096V2.75195ZM45.7614 34.2564C45.7614 34.2564 49.8323 29.2014 29.46 25.8863C29.46 25.8863 43.9149 23.5249 51.0903 29.4677C58.2658 35.4104 68.216 30.0105 68.216 30.0105C68.216 30.0105 66.3568 41.3912 45.7614 34.2564Z" fill="#B41529"/>
<path d="M56.3585 40.3133C53.8728 40.3133 47.7576 39.5904 40.1281 33.5665C30.7384 26.1527 20.1313 26.4799 20.0273 26.4824L20.0172 26.4723H7.33015V26.736C7.33015 27.3879 6.80005 27.9155 6.15073 27.9155H4.05314C3.40129 27.9155 2.87372 27.3854 2.87372 26.736V26.4723H1.86931C0.839542 26.4723 0 25.6353 0 24.6029V18.1453C0 17.1155 0.837006 16.276 1.86931 16.276H2.87372V16.0122C2.87372 15.3604 3.40383 14.8328 4.05314 14.8328H6.15073C6.80258 14.8328 7.33015 15.3629 7.33015 16.0122V16.276H22.7945C26.4925 15.8524 33.6604 14.3661 40.2245 9.18173C48.7138 2.47806 55.3287 2.33602 57.1549 2.45523C57.581 2.48313 58.2785 2.49835 58.7072 2.49835H71.8659L72.1196 2.75199L72.0587 26.835C72.0384 34.2311 66.0069 40.2474 58.6108 40.2474C58.1821 40.2474 57.4846 40.2626 57.056 40.2905C56.8759 40.3032 56.64 40.3133 56.3585 40.3133ZM20.2657 25.9701C21.9651 25.9701 31.7302 26.2846 40.4427 33.1658C48.7899 39.7578 55.2475 39.8973 57.0255 39.7857C57.4643 39.7578 58.1745 39.7401 58.6108 39.7401C65.7279 39.7401 71.5311 33.9495 71.5514 26.835L71.6123 3.00563H58.7097C58.2734 3.00563 57.5607 2.98787 57.1245 2.95997C55.3439 2.84584 48.8888 2.98787 40.5416 9.57994C33.8709 14.848 26.5864 16.3521 22.8401 16.7807L22.8122 16.7833H7.08159L6.82795 16.5296V16.0122C6.82795 15.6419 6.52612 15.3401 6.15581 15.3401H4.05822C3.6879 15.3401 3.38608 15.6419 3.38608 16.0122V16.5296L3.13244 16.7833H1.87439C1.12362 16.7833 0.512351 17.3945 0.512351 18.1453V24.6029C0.512351 25.3537 1.12362 25.965 1.87439 25.965H3.13244L3.38608 26.2186V26.736C3.38608 27.1064 3.6879 27.4082 4.05822 27.4082H6.15581C6.52612 27.4082 6.82795 27.1064 6.82795 26.736V26.2186L7.08159 25.965H20.0222L20.0324 25.9751C20.0628 25.9726 20.144 25.9701 20.2657 25.9701ZM57.548 36.874C54.2178 36.874 50.2534 36.0801 45.6778 34.4974L45.5611 34.0992C45.5814 34.0713 46.0734 33.4296 45.6981 32.4632C45.1248 30.9972 42.2486 28.2249 29.4195 26.1375V25.6378C30.0156 25.5414 44.0722 23.3246 51.2527 29.275C58.2151 35.0427 67.9979 29.8431 68.0943 29.7899L68.4646 30.0536C68.4444 30.1805 67.9168 33.1988 64.5789 35.1898C62.6969 36.3134 60.3482 36.874 57.548 36.874ZM46.1368 34.1195C54.1467 36.8461 60.4243 37.0693 64.3075 34.7637C66.6461 33.3738 67.5287 31.4081 67.828 30.4874C65.6848 31.4842 57.2208 34.8829 50.9281 29.6681C45.3683 25.062 35.2279 25.5313 31.2077 25.932C42.2765 27.9205 45.4774 30.4696 46.1774 32.2983C46.4894 33.115 46.3068 33.7644 46.1368 34.1195Z" fill="#B41529"/>
<path d="M120.597 6.08732C119.114 7.30986 117.156 6.69352 117.156 6.69352C117.82 5.09813 117.468 3.53065 117.468 3.53065L116.783 4.12416C116.877 1.80844 115.667 0.225738 115.474 0C115.474 0 113.508 0.707648 112.529 2.99293L112.174 2.13056C112.174 2.13056 111.195 3.3531 111.106 5.09813C111.106 5.09813 109.1 4.68977 108.301 2.87626C108.301 2.87626 107.527 5.00682 108.453 7.08159C108.453 7.08159 107.723 7.19065 107.01 6.28262C107.01 6.28262 106.523 9.21722 109.463 12.266C109.795 11.9033 110.208 11.604 110.69 11.4061C112.511 10.6554 114.617 11.571 115.393 13.453C115.451 13.595 115.499 13.7396 115.54 13.8867C119.479 12.616 120.298 9.7524 120.298 9.7524C119.279 10.214 118.675 9.75747 118.675 9.75747C120.379 8.35992 120.597 6.08732 120.597 6.08732Z" fill="#B41529"/>
<path d="M135.821 1.86426C133.896 1.86426 132.26 3.09187 131.641 4.80393C134.258 5.2833 136.338 12.7682 136.338 21.9347C136.338 30.5356 134.507 37.6552 132.12 38.898C132.917 40.0952 134.276 40.884 135.823 40.884C138.279 40.884 140.27 38.8929 140.27 36.4377V6.31054C140.267 3.85532 138.276 1.86426 135.821 1.86426Z" fill="#B41529"/>
<path d="M71.3257 2.45532C71.5464 2.4604 71.7696 2.48322 71.9877 2.5162C72.2008 2.55932 72.4138 2.61512 72.6167 2.6836C72.8044 2.75462 72.9896 2.83578 73.1671 2.92709C73.3244 3.01586 73.474 3.10971 73.6211 3.20863C74.1614 3.60177 74.4759 3.9873 74.727 4.32718C75.2038 5.00439 75.4347 5.55732 75.635 6.06967C76.018 7.0893 76.2285 7.97957 76.4188 8.85716C76.7866 10.6022 77.0199 12.2534 77.2634 13.8843C77.5043 15.505 77.7326 17.1055 78.0395 18.5943C78.1917 19.3324 78.3693 20.0553 78.5722 20.626C78.6685 20.9075 78.7852 21.1459 78.8258 21.2246C78.8385 21.2575 78.8334 21.2423 78.7066 21.1637C78.6685 21.1358 78.6305 21.1155 78.5848 21.0977C78.5316 21.0673 78.4707 21.0445 78.4098 21.0293C78.3414 21.0039 78.2678 20.9862 78.1942 20.9811C78.1182 20.9659 78.0395 20.9608 77.9634 20.9684C77.8873 20.9659 77.8087 20.976 77.7352 20.9938C77.6616 21.0039 77.5906 21.0242 77.5246 21.0546C77.4663 21.0724 77.4105 21.0978 77.3598 21.1307C77.3192 21.151 77.2837 21.1738 77.2507 21.2017C77.1416 21.2905 77.1518 21.3108 77.1822 21.2804C77.2558 21.2119 77.408 20.976 77.5348 20.697C77.8036 20.1339 78.0446 19.4161 78.2602 18.6831C78.6939 17.2044 79.049 15.6166 79.4142 14.0187C79.782 12.4157 80.1396 10.7899 80.6165 9.13109C80.86 8.29915 81.1263 7.46215 81.522 6.57695C81.7249 6.13562 81.9582 5.67653 82.3438 5.17686C82.5441 4.9283 82.7851 4.66198 83.1503 4.41341C83.2493 4.35254 83.3482 4.29166 83.4522 4.2384C83.5663 4.18514 83.6855 4.13695 83.8047 4.09383C83.9341 4.05578 84.066 4.02281 84.1979 3.99998C84.3323 3.98222 84.4718 3.97462 84.6062 3.97208C84.7432 3.97715 84.8802 3.99237 85.012 4.01266C85.1439 4.04056 85.2733 4.07607 85.4001 4.11919C85.5168 4.16484 85.6335 4.21811 85.7451 4.27391C85.844 4.33225 85.9404 4.39312 86.0342 4.45653C86.3842 4.71524 86.6074 4.9841 86.7901 5.23774C87.1426 5.74501 87.3404 6.20664 87.5104 6.65304C87.8426 7.54331 88.043 8.38793 88.2231 9.22493C88.5731 10.8964 88.8039 12.5349 89.0474 14.1607C89.2884 15.784 89.5192 17.3997 89.8413 18.9621C90.0036 19.7408 90.1913 20.5118 90.445 21.2094C90.5718 21.5568 90.7214 21.884 90.8863 22.1351C90.9675 22.2569 91.0537 22.3558 91.1171 22.4116C91.1856 22.4674 91.211 22.4775 91.2439 22.4877C91.2769 22.4953 91.315 22.4978 91.3987 22.4496C91.4798 22.404 91.5813 22.3076 91.6802 22.1909C91.878 21.95 92.0632 21.6253 92.2205 21.2829C92.54 20.5905 92.7911 19.827 93.0194 19.0534C93.4709 17.5012 93.826 15.9007 94.1938 14.3002C94.559 12.6998 94.9166 11.0892 95.3783 9.5014C95.6116 8.71005 95.8678 7.9187 96.2127 7.16539C96.3852 6.79001 96.5856 6.41969 96.8468 6.0925C96.9787 5.9327 97.1258 5.78052 97.3034 5.66639C97.4784 5.55225 97.6864 5.48376 97.8918 5.49391C97.6864 5.50152 97.4885 5.58269 97.3313 5.70697C97.1715 5.83125 97.0396 5.98597 96.9254 6.15084C96.6972 6.48564 96.5323 6.85849 96.3903 7.23894C96.1113 8.0024 95.9185 8.79629 95.7486 9.59525C95.4163 11.1957 95.1855 12.8165 94.9445 14.4423C94.7036 16.0681 94.4702 17.6965 94.1304 19.3324C93.9553 20.1517 93.76 20.9709 93.4531 21.7978C93.2984 22.2112 93.1158 22.6297 92.8241 23.0482C92.6745 23.2562 92.4969 23.4718 92.2433 23.662C91.9947 23.8523 91.6269 24.007 91.249 24.0095C90.8711 24.0222 90.4906 23.8827 90.2269 23.7001C89.9555 23.5175 89.7627 23.3095 89.5953 23.104C89.2732 22.6906 89.0576 22.2772 88.8674 21.8688C88.497 21.0496 88.2358 20.2354 87.9974 19.4237C87.5281 17.8005 87.1705 16.1822 86.8027 14.5792C86.4375 12.9813 86.0799 11.3859 85.6385 9.87171C85.4179 9.11841 85.1693 8.37778 84.8751 7.7513C84.7305 7.44186 84.5631 7.16032 84.4287 7.0056C84.3653 6.93204 84.3069 6.89653 84.3221 6.91682C84.3272 6.93458 84.4642 7.01067 84.6012 7.01574C84.7381 7.02842 84.8852 6.96755 84.908 6.95741C84.9385 6.94472 84.8979 6.98784 84.8523 7.06393C84.7508 7.22626 84.6164 7.51034 84.5048 7.82485C84.2765 8.46148 84.0939 9.20718 83.9366 9.96556C83.6221 11.4925 83.3913 13.1005 83.1529 14.7213C82.9094 16.3496 82.676 17.9932 82.3184 19.7027C82.1332 20.56 81.9278 21.4275 81.5702 22.3837C81.385 22.8631 81.1694 23.3703 80.756 23.9613C80.5379 24.2581 80.269 24.5853 79.8251 24.9125C79.7034 24.9962 79.5816 25.0723 79.4523 25.1458C79.3077 25.2194 79.1581 25.2879 79.0059 25.3462C78.841 25.402 78.6685 25.4476 78.4961 25.4832C78.3211 25.5111 78.141 25.5288 77.9609 25.5339C77.7833 25.5314 77.6007 25.5187 77.4257 25.4958C77.2532 25.4654 77.0782 25.4223 76.9108 25.3716C76.7561 25.3158 76.6039 25.2523 76.4543 25.1813C76.3224 25.1103 76.1956 25.0368 76.0713 24.9556C75.6097 24.6385 75.3256 24.3164 75.0897 24.0222C74.6433 23.4388 74.3947 22.9341 74.1766 22.4598C73.753 21.5137 73.4842 20.6513 73.2356 19.7991C72.7486 18.1023 72.391 16.4689 72.0232 14.8659C71.658 13.2679 71.3029 11.6903 70.8793 10.2471C70.6688 9.53437 70.4304 8.84194 70.1894 8.34227C70.0753 8.09624 69.9408 7.90601 69.9282 7.92377C69.9332 7.93899 69.9687 8.01762 70.1717 8.17234C70.23 8.22053 70.2934 8.25857 70.3644 8.29408C70.4481 8.34481 70.5394 8.38539 70.6333 8.41583C70.7398 8.45894 70.8514 8.48938 70.9655 8.50714C71.0822 8.5325 71.2014 8.54518 71.3206 8.54265C69.639 8.54265 68.277 7.18061 68.277 5.49898C68.2821 3.81736 69.6441 2.45532 71.3257 2.45532Z" fill="#B41529"/>
</svg>
