<svg width="21" height="22" viewBox="0 0 21 22" fill="none" xmlns="http://www.w3.org/2000/svg">
<path d="M18.75 0.5H2.25C1.65326 0.5 1.08097 0.737053 0.65901 1.15901C0.237053 1.58097 0 2.15326 0 2.75L0 19.25C0 19.8467 0.237053 20.419 0.65901 20.841C1.08097 21.2629 1.65326 21.5 2.25 21.5H18.75C19.3467 21.5 19.919 21.2629 20.341 20.841C20.7629 20.419 21 19.8467 21 19.25V2.75C21 2.15326 20.7629 1.58097 20.341 1.15901C19.919 0.737053 19.3467 0.5 18.75 0.5ZM17.9817 14.908L17.2786 17.9548C17.2429 18.1097 17.1557 18.248 17.0313 18.347C16.907 18.446 16.7527 18.4999 16.5938 18.5C9.09375 18.5 3 12.4198 3 4.90625C3.00558 4.74878 3.06156 4.59725 3.15969 4.47397C3.25783 4.35068 3.39294 4.26216 3.54516 4.22141L6.59203 3.51828C6.644 3.50729 6.69689 3.50117 6.75 3.5C6.88597 3.50686 7.01762 3.55 7.13129 3.62492C7.24496 3.69985 7.3365 3.80384 7.39641 3.92609L8.80266 7.20734C8.8371 7.29581 8.85628 7.38949 8.85938 7.48438C8.84793 7.69252 8.75537 7.88789 8.60156 8.02859L6.82547 9.48172C7.90163 11.7626 9.73738 13.5984 12.0183 14.6745L13.4714 12.8984C13.6121 12.7446 13.8075 12.6521 14.0156 12.6406C14.1105 12.6437 14.2042 12.6629 14.2927 12.6973L17.5739 14.1036C17.6962 14.1634 17.8003 14.2549 17.8752 14.3686C17.9501 14.4823 17.9932 14.614 18 14.75C17.9991 14.8031 17.9929 14.856 17.9817 14.908Z" fill="#828282"/>
</svg>
