<svg width="55" height="60" viewBox="0 0 55 60" fill="none" xmlns="http://www.w3.org/2000/svg">
<g filter="url(#filter0_d)">
<path d="M9.98024 38.5874L9.09091 37.7133L8.91304 38.0629L9.09091 37.014V35.965L8.91304 35.4406L8.55731 34.9161V33.8671L9.09091 33.5175V32.6434V31.0699L8.91304 30.1958L8.55731 29.6713L8.20158 28.4476L7.84585 27.5734L7.49012 26.5245L6.42292 25.6504L5.88933 24.7762V24.0769L6.24506 22.8531L6.42292 21.979V21.1049L5.35573 19.8811H6.42292L6.95652 19.3566V18.1329V17.2587L6.42292 16.2098H5.35573L5 15.5105V14.6364H6.42292L7.49012 14.1119L7.84585 13.4126L8.20158 12.5385V11.1399L8.91304 10.4406L9.98024 9.04196V8.16783L8.91304 7.29371L8.20158 6.41958H6.95652V5.02098C6.95652 4.74126 7.54941 4.55478 7.84585 4.4965V3.7972V2.3986L8.20158 1H10.8696H12.8261H14.7826L15.6719 1.52448L16.7391 2.74825L17.2727 3.27273V3.7972V5.02098L17.8063 5.37063L18.5178 5.8951L19.7628 6.41958H20.1186L20.4743 7.29371L21.1858 8.16783L21.7194 8.69231L22.253 9.39161L22.6087 10.0909V10.7902L23.1423 11.1399H24.2095H25.9881L26.3439 10.7902L27.0553 10.4406L28.1225 10.7902V11.1399L29.9012 10.7902L30.9684 10.4406H31.6798L32.747 10.0909L33.2806 9.39161L34.7036 9.04196H35.2372H37.0158L38.083 9.39161L38.9723 10.4406V11.1399L39.8617 12.1888L40.3953 13.4126V14.6364V16.2098L41.1067 16.7343H43.419H44.664L45.3755 17.6084L46.087 18.1329H47.1541H48.7549L49.4664 18.6573V19.3566L48.7549 20.5804L48.3992 21.1049V22.3287L48.7549 22.6783L49.4664 23.3776L50 24.7762V25.6504V26.5245L49.4664 27.5734L48.7549 28.4476L48.3992 29.6713L46.6206 31.0699L45.7312 31.5944V32.6434L46.6206 33.5175L47.1541 34.2168L48.3992 34.9161L49.4664 35.4406V35.965L48.3992 36.6643L47.8656 37.014H47.1541V38.0629L47.8656 38.5874L48.3992 39.6364V39.986V40.8601L47.8656 41.3846V42.4336V43.1329L47.1541 44.3566H46.6206H45.7312L45.0198 43.8322L43.7747 43.1329H42.8854L41.996 43.4825H40.751L39.8617 44.3566L39.3281 44.8811V45.9301V46.6294L38.9723 48.028L38.4387 49.2517V50.1259L37.1937 51H36.8379L36.3043 50.6503L35.5929 49.6014V48.7273L35.0593 48.028L34.3478 48.7273H33.4585H32.9249H32.2134L30.7905 49.2517V49.6014L30.2569 50.6503H29.5455H28.3004H27.7668H25.4545C24.8617 50.7086 23.5692 50.7902 23.1423 50.6503C22.7154 50.5105 22.6087 50.2424 22.6087 50.1259V49.2517C22.6087 48.972 22.9644 48.7855 23.1423 48.7273L23.6759 48.028L24.5652 47.3287V46.6294V45.4056L24.0316 44.3566C23.8538 44.2984 23.4269 44.1119 23.1423 43.8322C22.8577 43.5524 22.3123 43.7156 22.0751 43.8322C21.9565 43.5991 21.7194 43.0629 21.7194 42.7832C21.7194 42.5035 21.1265 42.4336 20.83 42.4336H20.1186L19.585 41.3846V40.3357C19.585 40.0559 19.2292 39.7529 19.0514 39.6364L18.5178 39.1119V38.0629L17.8063 37.7133H16.7391V38.5874L16.2055 39.6364H15.4941L14.9605 38.5874H14.249L12.2925 39.1119L11.0474 39.6364L10.6917 38.5874H9.98024Z" fill="#C4C4C4"/>
<path d="M9.98024 38.5874L9.09091 37.7133L8.91304 38.0629L9.09091 37.014V35.965L8.91304 35.4406L8.55731 34.9161V33.8671L9.09091 33.5175V32.6434V31.0699L8.91304 30.1958L8.55731 29.6713L8.20158 28.4476L7.84585 27.5734L7.49012 26.5245L6.42292 25.6504L5.88933 24.7762V24.0769L6.24506 22.8531L6.42292 21.979V21.1049L5.35573 19.8811H6.42292L6.95652 19.3566V18.1329V17.2587L6.42292 16.2098H5.35573L5 15.5105V14.6364H6.42292L7.49012 14.1119L7.84585 13.4126L8.20158 12.5385V11.1399L8.91304 10.4406L9.98024 9.04196V8.16783L8.91304 7.29371L8.20158 6.41958H6.95652V5.02098C6.95652 4.74126 7.54941 4.55478 7.84585 4.4965V3.7972V2.3986L8.20158 1H10.8696H12.8261H14.7826L15.6719 1.52448L16.7391 2.74825L17.2727 3.27273V3.7972V5.02098L17.8063 5.37063L18.5178 5.8951L19.7628 6.41958H20.1186L20.4743 7.29371L21.1858 8.16783L21.7194 8.69231L22.253 9.39161L22.6087 10.0909V10.7902L23.1423 11.1399H24.2095H25.9881L26.3439 10.7902L27.0553 10.4406L28.1225 10.7902V11.1399L29.9012 10.7902L30.9684 10.4406H31.6798L32.747 10.0909L33.2806 9.39161L34.7036 9.04196H35.2372H37.0158L38.083 9.39161L38.9723 10.4406V11.1399L39.8617 12.1888L40.3953 13.4126V14.6364V16.2098L41.1067 16.7343H43.419H44.664L45.3755 17.6084L46.087 18.1329H47.1541H48.7549L49.4664 18.6573V19.3566L48.7549 20.5804L48.3992 21.1049V22.3287L48.7549 22.6783L49.4664 23.3776L50 24.7762V25.6504V26.5245L49.4664 27.5734L48.7549 28.4476L48.3992 29.6713L46.6206 31.0699L45.7312 31.5944V32.6434L46.6206 33.5175L47.1541 34.2168L48.3992 34.9161L49.4664 35.4406V35.965L48.3992 36.6643L47.8656 37.014H47.1541V38.0629L47.8656 38.5874L48.3992 39.6364V39.986V40.8601L47.8656 41.3846V42.4336V43.1329L47.1541 44.3566H46.6206H45.7312L45.0198 43.8322L43.7747 43.1329H42.8854L41.996 43.4825H40.751L39.8617 44.3566L39.3281 44.8811V45.9301V46.6294L38.9723 48.028L38.4387 49.2517V50.1259L37.1937 51H36.8379L36.3043 50.6503L35.5929 49.6014V48.7273L35.0593 48.028L34.3478 48.7273H33.4585H32.9249H32.2134L30.7905 49.2517V49.6014L30.2569 50.6503H29.5455H28.3004H27.7668H25.4545C24.8617 50.7086 23.5692 50.7902 23.1423 50.6503C22.7154 50.5105 22.6087 50.2424 22.6087 50.1259V49.2517C22.6087 48.972 22.9644 48.7855 23.1423 48.7273L23.6759 48.028L24.5652 47.3287V46.6294V45.4056L24.0316 44.3566C23.8538 44.2984 23.4269 44.1119 23.1423 43.8322C22.8577 43.5524 22.3123 43.7156 22.0751 43.8322C21.9565 43.5991 21.7194 43.0629 21.7194 42.7832C21.7194 42.5035 21.1265 42.4336 20.83 42.4336H20.1186L19.585 41.3846V40.3357C19.585 40.0559 19.2292 39.7529 19.0514 39.6364L18.5178 39.1119V38.0629L17.8063 37.7133H16.7391V38.5874L16.2055 39.6364H15.4941L14.9605 38.5874H14.249L12.2925 39.1119L11.0474 39.6364L10.6917 38.5874H9.98024Z" fill="url(#paint0_radial)"/>
<path d="M9.98024 38.5874L9.09091 37.7133L8.91304 38.0629L9.09091 37.014V35.965L8.91304 35.4406L8.55731 34.9161V33.8671L9.09091 33.5175V32.6434V31.0699L8.91304 30.1958L8.55731 29.6713L8.20158 28.4476L7.84585 27.5734L7.49012 26.5245L6.42292 25.6504L5.88933 24.7762V24.0769L6.24506 22.8531L6.42292 21.979V21.1049L5.35573 19.8811H6.42292L6.95652 19.3566V18.1329V17.2587L6.42292 16.2098H5.35573L5 15.5105V14.6364H6.42292L7.49012 14.1119L7.84585 13.4126L8.20158 12.5385V11.1399L8.91304 10.4406L9.98024 9.04196V8.16783L8.91304 7.29371L8.20158 6.41958H6.95652V5.02098C6.95652 4.74126 7.54941 4.55478 7.84585 4.4965V3.7972V2.3986L8.20158 1H10.8696H12.8261H14.7826L15.6719 1.52448L16.7391 2.74825L17.2727 3.27273V3.7972V5.02098L17.8063 5.37063L18.5178 5.8951L19.7628 6.41958H20.1186L20.4743 7.29371L21.1858 8.16783L21.7194 8.69231L22.253 9.39161L22.6087 10.0909V10.7902L23.1423 11.1399H24.2095H25.9881L26.3439 10.7902L27.0553 10.4406L28.1225 10.7902V11.1399L29.9012 10.7902L30.9684 10.4406H31.6798L32.747 10.0909L33.2806 9.39161L34.7036 9.04196H35.2372H37.0158L38.083 9.39161L38.9723 10.4406V11.1399L39.8617 12.1888L40.3953 13.4126V14.6364V16.2098L41.1067 16.7343H43.419H44.664L45.3755 17.6084L46.087 18.1329H47.1541H48.7549L49.4664 18.6573V19.3566L48.7549 20.5804L48.3992 21.1049V22.3287L48.7549 22.6783L49.4664 23.3776L50 24.7762V25.6504V26.5245L49.4664 27.5734L48.7549 28.4476L48.3992 29.6713L46.6206 31.0699L45.7312 31.5944V32.6434L46.6206 33.5175L47.1541 34.2168L48.3992 34.9161L49.4664 35.4406V35.965L48.3992 36.6643L47.8656 37.014H47.1541V38.0629L47.8656 38.5874L48.3992 39.6364V39.986V40.8601L47.8656 41.3846V42.4336V43.1329L47.1541 44.3566H46.6206H45.7312L45.0198 43.8322L43.7747 43.1329H42.8854L41.996 43.4825H40.751L39.8617 44.3566L39.3281 44.8811V45.9301V46.6294L38.9723 48.028L38.4387 49.2517V50.1259L37.1937 51H36.8379L36.3043 50.6503L35.5929 49.6014V48.7273L35.0593 48.028L34.3478 48.7273H33.4585H32.9249H32.2134L30.7905 49.2517V49.6014L30.2569 50.6503H29.5455H28.3004H27.7668H25.4545C24.8617 50.7086 23.5692 50.7902 23.1423 50.6503C22.7154 50.5105 22.6087 50.2424 22.6087 50.1259V49.2517C22.6087 48.972 22.9644 48.7855 23.1423 48.7273L23.6759 48.028L24.5652 47.3287V46.6294V45.4056L24.0316 44.3566C23.8538 44.2984 23.4269 44.1119 23.1423 43.8322C22.8577 43.5524 22.3123 43.7156 22.0751 43.8322C21.9565 43.5991 21.7194 43.0629 21.7194 42.7832C21.7194 42.5035 21.1265 42.4336 20.83 42.4336H20.1186L19.585 41.3846V40.3357C19.585 40.0559 19.2292 39.7529 19.0514 39.6364L18.5178 39.1119V38.0629L17.8063 37.7133H16.7391V38.5874L16.2055 39.6364H15.4941L14.9605 38.5874H14.249L12.2925 39.1119L11.0474 39.6364L10.6917 38.5874H9.98024Z" stroke="#B41529"/>
</g>
<defs>
<filter id="filter0_d" x="0.256287" y="0.5" width="54.2437" height="59" filterUnits="userSpaceOnUse" color-interpolation-filters="sRGB">
<feFlood flood-opacity="0" result="BackgroundImageFix"/>
<feColorMatrix in="SourceAlpha" type="matrix" values="0 0 0 0 0 0 0 0 0 0 0 0 0 0 0 0 0 0 127 0"/>
<feOffset dy="4"/>
<feGaussianBlur stdDeviation="2"/>
<feColorMatrix type="matrix" values="0 0 0 0 0.807843 0 0 0 0 0.807843 0 0 0 0 0.807843 0 0 0 0.1 0"/>
<feBlend mode="normal" in2="BackgroundImageFix" result="effect1_dropShadow"/>
<feBlend mode="normal" in="SourceGraphic" in2="effect1_dropShadow" result="shape"/>
</filter>
<radialGradient id="paint0_radial" cx="0" cy="0" r="1" gradientUnits="userSpaceOnUse" gradientTransform="translate(29 26) rotate(128.454) scale(21.7083 19.5375)">
<stop stop-color="#DD0924"/>
<stop offset="1" stop-color="#B41529"/>
</radialGradient>
</defs>
</svg>
