<svg width="50" height="60" viewBox="0 0 50 60" fill="none" xmlns="http://www.w3.org/2000/svg">
<g filter="url(#filter0_d)">
<path d="M6.19107 39.6204L5 40.2176V42.0093H6.58809H7.87841L9.4665 42.3079L8.77171 43.5023L8.47395 44.2986L8.77171 44.6968C9.33416 44.7963 10.5385 44.9954 10.8561 44.9954C11.1737 44.9954 11.4516 45.5263 11.5509 45.7917L12.7419 47.0857H13.6352L14.6278 47.6829H16.8114L17.1092 48.3797L17.7047 49.375L18.6973 49.9723C19.2597 50.1713 20.4442 50.6292 20.6824 50.8681C20.9206 51.107 21.8404 50.9676 22.2705 50.8681L23.1638 49.375L23.66 47.6829L24.3548 46.6875L24.8511 45.7917L25.8437 44.2986L26.6377 43.5023L26.2407 42.9051L25.8437 42.3079H27.3325V41.1135V39.6204L26.6377 38.625L25.5459 37.5301L24.8511 36.9099H24.3548V35.4398V34.7431L24.8511 33.5486V32.7523L25.5459 31.8565H26.6377L27.3325 32.4537L28.4243 31.8565L28.9206 30.8611L30.0124 30.2639L30.8065 30.8611H31.6998L32.4938 30.2639L33.2878 29.6667H33.8834L34.7767 30.2639H35.5707L36.067 29.2685L37.5558 28.3727L38.9454 27.0787V25.9838V25.3866H40.2357L40.6328 23.4954L40.2357 22.5996V21.6042L40.8313 21.206L41.8238 20.1111L42.8164 19.5139V18.1204L44.4045 16.5278V15.7315L45 14.338V12.4468L44.4045 11.8495L42.8164 11.0532V9.95834V8.56482L43.9082 7.86806L43.5112 6.87269L42.8164 5.77778L42.2208 4.80818L41.8238 3.58797L40.6328 2.89121L39.3424 2.59259H38.2506L37.5558 2.09491L36.6625 1H35.3722L34.3797 1.69676L33.6849 2.59259L33.1886 3.58797L32.196 4.4838L31.1042 5.77778L30.3102 6.375V7.27084L30.0124 8.56482L29.1191 9.16204H28.5236L27.928 9.65973L27.4318 10.456L25.8437 11.0532H24.9504L23.4615 9.95834L22.9653 9.16204L22.469 7.86806L21.7742 7.27084L20.6824 6.87269H19.5906L18.995 6.375L17.7047 5.77778L16.9107 4.4838L15.6203 3.58797H14.1315L13.3375 4.4838L13.0397 5.77778L13.3375 6.87269V8.56482L14.1315 9.16204V9.95834V11.0532L13.3375 11.8495L12.7419 12.4468L13.0397 16.1296L12.7419 16.5278L12.4442 17.1826L13.0397 17.5232H14.1315L14.6278 17.9213V18.7176H13.3375L12.7419 19.5139L12.2457 20.1111L12.7419 20.9074L13.0397 21.6042L12.7419 22.1019L12.2457 22.5996V23.4954H13.0397L12.7419 24.4908H11.5509V25.3866V27.0787L10.8561 28.0741V29.6667L10.062 30.8611V32.7523V33.9468L9.4665 35.4398L8.47395 36.6343L7.38213 38.625L6.19107 39.6204Z" fill="#C4C4C4"/>
<path d="M6.19107 39.6204L5 40.2176V42.0093H6.58809H7.87841L9.4665 42.3079L8.77171 43.5023L8.47395 44.2986L8.77171 44.6968C9.33416 44.7963 10.5385 44.9954 10.8561 44.9954C11.1737 44.9954 11.4516 45.5263 11.5509 45.7917L12.7419 47.0857H13.6352L14.6278 47.6829H16.8114L17.1092 48.3797L17.7047 49.375L18.6973 49.9723C19.2597 50.1713 20.4442 50.6292 20.6824 50.8681C20.9206 51.107 21.8404 50.9676 22.2705 50.8681L23.1638 49.375L23.66 47.6829L24.3548 46.6875L24.8511 45.7917L25.8437 44.2986L26.6377 43.5023L26.2407 42.9051L25.8437 42.3079H27.3325V41.1135V39.6204L26.6377 38.625L25.5459 37.5301L24.8511 36.9099H24.3548V35.4398V34.7431L24.8511 33.5486V32.7523L25.5459 31.8565H26.6377L27.3325 32.4537L28.4243 31.8565L28.9206 30.8611L30.0124 30.2639L30.8065 30.8611H31.6998L32.4938 30.2639L33.2878 29.6667H33.8834L34.7767 30.2639H35.5707L36.067 29.2685L37.5558 28.3727L38.9454 27.0787V25.9838V25.3866H40.2357L40.6328 23.4954L40.2357 22.5996V21.6042L40.8313 21.206L41.8238 20.1111L42.8164 19.5139V18.1204L44.4045 16.5278V15.7315L45 14.338V12.4468L44.4045 11.8495L42.8164 11.0532V9.95834V8.56482L43.9082 7.86806L43.5112 6.87269L42.8164 5.77778L42.2208 4.80818L41.8238 3.58797L40.6328 2.89121L39.3424 2.59259H38.2506L37.5558 2.09491L36.6625 1H35.3722L34.3797 1.69676L33.6849 2.59259L33.1886 3.58797L32.196 4.4838L31.1042 5.77778L30.3102 6.375V7.27084L30.0124 8.56482L29.1191 9.16204H28.5236L27.928 9.65973L27.4318 10.456L25.8437 11.0532H24.9504L23.4615 9.95834L22.9653 9.16204L22.469 7.86806L21.7742 7.27084L20.6824 6.87269H19.5906L18.995 6.375L17.7047 5.77778L16.9107 4.4838L15.6203 3.58797H14.1315L13.3375 4.4838L13.0397 5.77778L13.3375 6.87269V8.56482L14.1315 9.16204V9.95834V11.0532L13.3375 11.8495L12.7419 12.4468L13.0397 16.1296L12.7419 16.5278L12.4442 17.1826L13.0397 17.5232H14.1315L14.6278 17.9213V18.7176H13.3375L12.7419 19.5139L12.2457 20.1111L12.7419 20.9074L13.0397 21.6042L12.7419 22.1019L12.2457 22.5996V23.4954H13.0397L12.7419 24.4908H11.5509V25.3866V27.0787L10.8561 28.0741V29.6667L10.062 30.8611V32.7523V33.9468L9.4665 35.4398L8.47395 36.6343L7.38213 38.625L6.19107 39.6204Z" fill="url(#paint0_radial)"/>
<path d="M6.19107 39.6204L5 40.2176V42.0093H6.58809H7.87841L9.4665 42.3079L8.77171 43.5023L8.47395 44.2986L8.77171 44.6968C9.33416 44.7963 10.5385 44.9954 10.8561 44.9954C11.1737 44.9954 11.4516 45.5263 11.5509 45.7917L12.7419 47.0857H13.6352L14.6278 47.6829H16.8114L17.1092 48.3797L17.7047 49.375L18.6973 49.9723C19.2597 50.1713 20.4442 50.6292 20.6824 50.8681C20.9206 51.107 21.8404 50.9676 22.2705 50.8681L23.1638 49.375L23.66 47.6829L24.3548 46.6875L24.8511 45.7917L25.8437 44.2986L26.6377 43.5023L26.2407 42.9051L25.8437 42.3079H27.3325V41.1135V39.6204L26.6377 38.625L25.5459 37.5301L24.8511 36.9099H24.3548V35.4398V34.7431L24.8511 33.5486V32.7523L25.5459 31.8565H26.6377L27.3325 32.4537L28.4243 31.8565L28.9206 30.8611L30.0124 30.2639L30.8065 30.8611H31.6998L32.4938 30.2639L33.2878 29.6667H33.8834L34.7767 30.2639H35.5707L36.067 29.2685L37.5558 28.3727L38.9454 27.0787V25.9838V25.3866H40.2357L40.6328 23.4954L40.2357 22.5996V21.6042L40.8313 21.206L41.8238 20.1111L42.8164 19.5139V18.1204L44.4045 16.5278V15.7315L45 14.338V12.4468L44.4045 11.8495L42.8164 11.0532V9.95834V8.56482L43.9082 7.86806L43.5112 6.87269L42.8164 5.77778L42.2208 4.80818L41.8238 3.58797L40.6328 2.89121L39.3424 2.59259H38.2506L37.5558 2.09491L36.6625 1H35.3722L34.3797 1.69676L33.6849 2.59259L33.1886 3.58797L32.196 4.4838L31.1042 5.77778L30.3102 6.375V7.27084L30.0124 8.56482L29.1191 9.16204H28.5236L27.928 9.65973L27.4318 10.456L25.8437 11.0532H24.9504L23.4615 9.95834L22.9653 9.16204L22.469 7.86806L21.7742 7.27084L20.6824 6.87269H19.5906L18.995 6.375L17.7047 5.77778L16.9107 4.4838L15.6203 3.58797H14.1315L13.3375 4.4838L13.0397 5.77778L13.3375 6.87269V8.56482L14.1315 9.16204V9.95834V11.0532L13.3375 11.8495L12.7419 12.4468L13.0397 16.1296L12.7419 16.5278L12.4442 17.1826L13.0397 17.5232H14.1315L14.6278 17.9213V18.7176H13.3375L12.7419 19.5139L12.2457 20.1111L12.7419 20.9074L13.0397 21.6042L12.7419 22.1019L12.2457 22.5996V23.4954H13.0397L12.7419 24.4908H11.5509V25.3866V27.0787L10.8561 28.0741V29.6667L10.062 30.8611V32.7523V33.9468L9.4665 35.4398L8.47395 36.6343L7.38213 38.625L6.19107 39.6204Z" stroke="#B41529"/>
</g>
<defs>
<filter id="filter0_d" x="0.5" y="0.5" width="49" height="59" filterUnits="userSpaceOnUse" color-interpolation-filters="sRGB">
<feFlood flood-opacity="0" result="BackgroundImageFix"/>
<feColorMatrix in="SourceAlpha" type="matrix" values="0 0 0 0 0 0 0 0 0 0 0 0 0 0 0 0 0 0 127 0"/>
<feOffset dy="4"/>
<feGaussianBlur stdDeviation="2"/>
<feColorMatrix type="matrix" values="0 0 0 0 0.807843 0 0 0 0 0.807843 0 0 0 0 0.807843 0 0 0 0.1 0"/>
<feBlend mode="normal" in2="BackgroundImageFix" result="effect1_dropShadow"/>
<feBlend mode="normal" in="SourceGraphic" in2="effect1_dropShadow" result="shape"/>
</filter>
<radialGradient id="paint0_radial" cx="0" cy="0" r="1" gradientUnits="userSpaceOnUse" gradientTransform="translate(25 26) rotate(90) scale(25 20)">
<stop stop-color="#DD0018"/>
<stop offset="1" stop-color="#B41529"/>
</radialGradient>
</defs>
</svg>
