<svg width="24" height="24" viewBox="0 0 24 24" fill="none" xmlns="http://www.w3.org/2000/svg">
<g clip-path="url(#clip0)">
<path d="M13.5981 14.9144C13.6772 14.873 13.7451 14.8189 13.8022 14.7568C16.8611 13.9144 19.125 10.9804 19.125 7.5C19.125 5.15527 17.6494 0.701297 17.5865 0.512812C17.4844 0.206578 17.1978 0 16.875 0H7.125C6.80217 0 6.51558 0.206578 6.41348 0.512812C6.35062 0.701297 4.875 5.15527 4.875 7.5C4.875 10.9804 7.13888 13.9144 10.1978 14.7567C10.2549 14.8189 10.3228 14.873 10.4019 14.9144C10.925 15.1884 11.25 15.7255 11.25 16.3162V21C11.25 21.8271 10.5771 22.5 9.75 22.5H8.25C7.83577 22.5 7.5 22.8358 7.5 23.25C7.5 23.6642 7.83577 24 8.25 24H15.75C16.1642 24 16.5 23.6642 16.5 23.25C16.5 22.8358 16.1642 22.5 15.75 22.5H14.25C13.4229 22.5 12.75 21.8271 12.75 21V16.3162C12.75 15.7255 13.075 15.1884 13.5981 14.9144ZM6.375 7.5C6.375 5.82797 7.2907 2.72227 7.67255 1.5H16.3276C16.7094 2.72194 17.625 5.82638 17.625 7.5C17.625 10.8084 15.1016 13.5 12 13.5C8.89838 13.5 6.375 10.8084 6.375 7.5Z" fill="#15AAB4"/>
</g>
<defs>
<clipPath id="clip0">
<rect width="24" height="24" fill="white"/>
</clipPath>
</defs>
</svg>
