<svg width="21" height="24" viewBox="0 0 21 24" fill="none" xmlns="http://www.w3.org/2000/svg">
<g clip-path="url(#clip0)">
<path d="M17.6281 14.4514L18.7255 11.517C18.9092 11.0248 18.5556 10.4998 18.0367 10.4998H15.3505C15.8556 9.61387 16.1679 8.59668 16.1679 7.49981V7.48574C17.9679 7.12012 19.1066 6.59043 19.1066 5.99981C19.1066 5.37637 17.8531 4.82324 15.8878 4.45293C15.4653 2.91543 14.648 1.36856 14.0235 0.57168C13.5872 0.0138675 12.8342 -0.15957 12.2097 0.15918L10.9423 0.806055C10.5291 1.01699 10.0423 1.01699 9.62908 0.806055L8.36174 0.15918C7.73725 -0.15957 6.98418 0.0138675 6.54796 0.57168C5.92806 1.36856 5.10612 2.91543 4.68367 4.45293C2.72296 4.82324 1.46939 5.37637 1.46939 5.99981C1.46939 6.59043 2.60816 7.12012 4.40816 7.48574V7.49981C4.40816 8.59668 4.72041 9.61387 5.22551 10.4998H2.5852C2.05714 10.4998 1.70357 11.0482 1.9102 11.5451L3.0949 14.367C1.25357 15.4592 0 17.4701 0 19.7998V21.8998C0 23.0576 0.922959 23.9998 2.05714 23.9998H18.5143C19.6485 23.9998 20.5714 23.0576 20.5714 21.8998V19.7998C20.5714 17.5311 19.3867 15.5623 17.6281 14.4514ZM8.08163 22.4998L6.17143 13.4998L8.44898 14.9998L9.55102 16.8748L8.08163 22.4998ZM12.4898 22.4998L11.0204 16.8748L12.1224 14.9998L14.4 13.4998L12.4898 22.4998ZM14.4046 8.50762C14.2255 9.06543 14.0832 9.66074 13.6469 10.0732C13.1832 10.5092 11.4429 11.1232 10.7082 8.90137C10.5796 8.50762 10.001 8.50762 9.86786 8.90137C9.08724 11.2545 7.29643 10.4201 6.92908 10.0732C6.49286 9.66074 6.34592 9.06543 6.17143 8.50762C6.13469 8.39043 5.88214 8.24043 5.88214 8.23574V7.72949C7.18163 7.89824 8.68316 8.00137 10.2903 8.00137C11.8974 8.00137 13.399 7.90293 14.6985 7.72949V8.23574C14.6939 8.24043 14.4413 8.38574 14.4046 8.50762Z" fill="#E0E0E0"/>
</g>
<defs>
<clipPath id="clip0">
<rect width="20.5714" height="24" fill="white"/>
</clipPath>
</defs>
</svg>
