<svg width="20" height="20" viewBox="0 0 20 20" fill="none" xmlns="http://www.w3.org/2000/svg">
<path d="M15.6 0H5.6C4.7164 0 4 0.7164 4 1.6V2H1.6C0.7164 2 0 2.7164 0 3.6V5.6C0 6.4836 0.7164 7.2 1.6 7.2H4V10V15.2V16.8C4 17.684 4.716 18.4 5.6 18.4H6.8H8C8 19.2836 8.7164 20 9.6 20H14.4C15.2836 20 16 19.2836 16 18.4H17.2H18.4C19.2836 18.4 20 17.6836 20 16.8V4.4V4L16 0H15.6ZM13.6 3.6C13.6 2.7164 12.8836 2 12 2C12.884 2 13.6 2.716 13.6 3.6ZM13.6 5.6C13.6 6.484 12.884 7.2 12 7.2C12.8836 7.2 13.6 6.4836 13.6 5.6Z" fill="#FFDC69"/>
<path d="M13.6 3.6V5.6C13.6 6.4836 12.8836 7.2 12 7.2H1.6C0.7164 7.2 0 6.4836 0 5.6V3.6C0 2.7164 0.7164 2 1.6 2H12C12.8836 2 13.6 2.7164 13.6 3.6Z" fill="#FF8C5A"/>
<path d="M14.4 20H9.6C8.7164 20 8 19.2836 8 18.4V14.4C8 13.5164 8.7164 12.8 9.6 12.8H14.4C15.2836 12.8 16 13.5164 16 14.4V18.4C16 19.2836 15.2836 20 14.4 20Z" fill="#FEEC9F"/>
<path d="M12 18H10.8V16.8L12.8 14.8L14 16L12 18Z" fill="white"/>
<path d="M16 0H15.6V2.8C15.6 3.6836 16.3164 4.4 17.2 4.4H20V4L16 0Z" fill="#FFB855"/>
<path d="M2.00001 5.19995H1.20001V5.99994H2.00001V5.19995Z" fill="white"/>
<path d="M3.75972 3.20837H2.66852V5.99877H3.46852V5.14077H3.75972C4.27812 5.14077 4.88412 4.88117 4.88412 4.14917C4.88412 3.53357 4.49532 3.20837 3.75972 3.20837ZM3.46892 3.85837H3.72692C3.98932 3.85837 4.10132 3.94517 4.10132 4.14917C4.10132 4.37557 3.97532 4.49037 3.72692 4.49037H3.46892V3.85837Z" fill="white"/>
<path d="M7.51319 4.59077C7.51319 3.68637 7.01799 3.20837 6.08079 3.20837H5.23999V5.99877H6.12279C7.00639 5.99837 7.51319 5.48517 7.51319 4.59077ZM6.03959 5.33957V3.86717C6.38119 3.86717 6.69679 3.95517 6.69679 4.59077C6.69679 5.25437 6.34559 5.33957 6.03959 5.33957Z" fill="white"/>
<path d="M9.7592 3.89197V3.20837H7.9104V5.99837H8.7104V5.00797H9.6096V4.32397H8.7104V3.89197H9.7592Z" fill="white"/>
</svg>
