<svg width="175" height="236" viewBox="0 0 175 236" fill="none" xmlns="http://www.w3.org/2000/svg">
<g filter="url(#filter0_d)">
<path d="M75.6 149.4C75.6 138.6 78 129.7 82.8 122.7C87.8 115.5 95 107.7 104.4 99.3C111.6 92.9 116.9 87.4 120.3 82.8C123.9 78 125.7 72.6 125.7 66.6C125.7 58.2 122.3 51.4 115.5 46.2C108.7 41 99.6 38.4 88.2 38.4C66.6 38.4 50.3 46.1 39.3 61.5L10.2 42.6C18.8 30.8 29.9 21.8 43.5 15.6C57.1 9.19999 73.1 5.99999 91.5 5.99999C113.9 5.99999 131.7 10.9 144.9 20.7C158.3 30.3 165 43.6 165 60.6C165 68.8 163.6 76 160.8 82.2C158.2 88.4 155 93.7 151.2 98.1C147.4 102.3 142.4 107.2 136.2 112.8C128.6 119.6 122.9 125.6 119.1 130.8C115.5 136 113.7 142.2 113.7 149.4H75.6ZM94.8 221.1C87.8 221.1 82 218.9 77.4 214.5C73 209.9 70.8 204.3 70.8 197.7C70.8 191.1 73 185.6 77.4 181.2C82 176.8 87.8 174.6 94.8 174.6C101.6 174.6 107.2 176.8 111.6 181.2C116.2 185.6 118.5 191.1 118.5 197.7C118.5 204.3 116.2 209.9 111.6 214.5C107.2 218.9 101.6 221.1 94.8 221.1Z" fill="white"/>
</g>
<defs>
<filter id="filter0_d" x="0.200012" y="0" width="174.8" height="235.1" filterUnits="userSpaceOnUse" color-interpolation-filters="sRGB">
<feFlood flood-opacity="0" result="BackgroundImageFix"/>
<feColorMatrix in="SourceAlpha" type="matrix" values="0 0 0 0 0 0 0 0 0 0 0 0 0 0 0 0 0 0 127 0"/>
<feOffset dy="4"/>
<feGaussianBlur stdDeviation="5"/>
<feColorMatrix type="matrix" values="0 0 0 0 0 0 0 0 0 0 0 0 0 0 0 0 0 0 0.5 0"/>
<feBlend mode="normal" in2="BackgroundImageFix" result="effect1_dropShadow"/>
<feBlend mode="normal" in="SourceGraphic" in2="effect1_dropShadow" result="shape"/>
</filter>
</defs>
</svg>
