<svg width="20" height="20" viewBox="0 0 20 20" fill="none" xmlns="http://www.w3.org/2000/svg">
<path d="M17.5578 5.35728L3.51364 17.1417C3.16126 17.4374 2.63529 17.3914 2.33961 17.039C2.04393 16.6866 2.08994 16.1607 2.44233 15.865L16.4865 4.08054C16.8389 3.78486 17.3648 3.83087 17.6605 4.18325C17.9562 4.53564 17.9102 5.0616 17.5578 5.35728Z" fill="black"/>
<path d="M16.4864 17.1418L2.4423 5.35732C2.08992 5.06164 2.0439 4.53567 2.33959 4.18329C2.63527 3.83091 3.16123 3.78489 3.51361 4.08058L17.5578 15.865C17.9101 16.1607 17.9562 16.6867 17.6605 17.039C17.3648 17.3914 16.8388 17.4374 16.4864 17.1418Z" fill="black"/>
</svg>
