<svg width="45" height="45" viewBox="0 0 45 45" fill="none" xmlns="http://www.w3.org/2000/svg">
<path d="M39.505 12.0538L7.90569 38.5688C7.11283 39.2341 5.92941 39.1306 5.26413 38.3377C4.59884 37.5448 4.70237 36.3614 5.49523 35.6961L37.0946 9.18115C37.8874 8.51586 39.0708 8.6194 39.7361 9.41226C40.4014 10.2051 40.2979 11.3885 39.505 12.0538Z" fill="#FEC52D"/>
<path d="M37.0945 38.5687L5.49512 12.0537C4.70226 11.3884 4.59872 10.205 5.26401 9.41216C5.9293 8.6193 7.11271 8.51577 7.90557 9.18106L39.5049 35.696C40.2978 36.3613 40.4013 37.5447 39.736 38.3376C39.0707 39.1305 37.8873 39.234 37.0945 38.5687Z" fill="#FEC52D"/>
</svg>
