<svg xmlns="http://www.w3.org/2000/svg" viewBox="0 0 26 24" width="26" height="24">
	<style>
		tspan { white-space:pre }
		.shp0 { fill: #f3f3f3 } 
	</style>
	<g id="Header">
		<path id="Cart" class="shp0" d="M24.08 7.39C24.28 7.64 24.36 7.94 24.31 8.29L23.36 13.73C23.33 14.01 23.2 14.25 22.97 14.43C22.75 14.61 22.49 14.71 22.21 14.71L8.36 14.71L8.09 16.25L21.29 16.25C21.6 16.25 21.88 16.37 22.11 16.59C22.34 16.82 22.46 17.1 22.46 17.43C22.46 17.76 22.34 18.04 22.11 18.26C21.88 18.49 21.6 18.6 21.29 18.6L6.69 18.6C6.34 18.6 6.04 18.46 5.79 18.18C5.56 17.89 5.47 17.57 5.52 17.2L6.14 13.81L5.19 4.27L2.49 3.42C2.18 3.32 1.95 3.13 1.8 2.84C1.66 2.56 1.63 2.26 1.72 1.94C1.82 1.63 2.01 1.4 2.3 1.26C2.6 1.11 2.89 1.09 3.19 1.17L6.64 2.27C6.86 2.33 7.04 2.46 7.18 2.64C7.32 2.83 7.41 3.03 7.44 3.27L7.64 5.16L23.28 6.91C23.63 6.96 23.9 7.12 24.08 7.39ZM8.46 19.25C8.96 19.25 9.39 19.43 9.74 19.78C10.09 20.13 10.26 20.55 10.26 21.05C10.26 21.55 10.09 21.98 9.74 22.34C9.39 22.69 8.96 22.87 8.46 22.87C7.96 22.87 7.54 22.69 7.19 22.34C6.84 21.98 6.67 21.55 6.67 21.05C6.67 20.55 6.84 20.13 7.19 19.78C7.54 19.43 7.96 19.25 8.46 19.25ZM19.14 19.25C19.64 19.25 20.06 19.43 20.41 19.78C20.76 20.13 20.94 20.55 20.94 21.05C20.94 21.55 20.76 21.98 20.41 22.34C20.06 22.69 19.64 22.87 19.14 22.87C18.64 22.87 18.21 22.69 17.86 22.34C17.51 21.98 17.34 21.55 17.34 21.05C17.34 20.55 17.51 20.13 17.86 19.78C18.21 19.43 18.64 19.25 19.14 19.25Z" />
	</g>
</svg>