<svg width="21" height="23" viewBox="0 0 21 23" fill="none" xmlns="http://www.w3.org/2000/svg">
<path d="M19.8253 5.68011H16.6563V4.29241C16.6583 2.92392 16.0064 1.63654 14.9021 0.827903C13.7977 0.0194713 12.3736 -0.213127 11.0694 0.20191C9.76528 -0.213127 8.34117 0.0194713 7.23683 0.827903C6.13249 1.63654 5.48081 2.92392 5.48263 4.29241V5.68011H4.5401C4.52979 5.68011 4.51947 5.68537 4.50916 5.68537C4.5039 5.68537 4.49358 5.69043 4.48833 5.69043C4.47801 5.69043 4.47295 5.69569 4.46244 5.69569C4.45212 5.69569 4.44706 5.70094 4.43655 5.70094C4.42886 5.70216 4.42158 5.7058 4.41592 5.71126C4.4056 5.71632 4.40034 5.71632 4.39003 5.72157C4.38477 5.72683 4.37971 5.72683 4.3694 5.73189C4.36009 5.73594 4.3514 5.74119 4.34351 5.74746C4.33825 5.74746 4.33825 5.75272 4.33299 5.75272L3.69628 6.1358C3.20135 6.43616 2.58061 6.43616 2.08589 6.1358L1.45423 5.75272C1.29485 5.65483 1.09502 5.65078 0.931792 5.742C0.768366 5.83342 0.667236 6.00575 0.667236 6.19284V20.4111C0.667641 21.8407 1.82639 22.9996 3.25616 23H17.7541C19.1837 22.9996 20.3424 21.8407 20.3431 20.4111V6.1979C20.3422 5.91231 20.1109 5.68092 19.8253 5.68011ZM15.6207 4.29241V5.68011H14.0673V4.29241C14.0684 3.04184 13.5214 1.85356 12.571 1.04088C14.286 1.15091 15.6207 2.57401 15.6207 4.29241ZM9.10187 5.68011V4.29241C9.10288 2.9935 9.87329 1.81857 11.0642 1.29977C12.2561 1.81736 13.0271 2.99309 13.0267 4.29241V5.68011H9.10187ZM6.51294 4.29241C6.51476 2.57462 7.84846 1.15253 9.56261 1.04088C8.61422 1.85518 8.06771 3.04244 8.0663 4.29241V5.68011H6.51294V4.29241ZM1.70281 20.4163V7.10928C2.44914 7.49762 3.33807 7.49762 4.08461 7.10928V20.4163C4.08401 20.9766 4.26564 21.5219 4.6024 21.9697H3.25616C2.39919 21.9671 1.70523 21.2731 1.70281 20.4163ZM19.3075 20.4163C19.3049 21.2731 18.6109 21.9671 17.7541 21.9697H6.67354C5.81656 21.9671 5.12261 21.2731 5.12018 20.4163V6.71568H5.91223C5.94116 6.72195 5.97069 6.72559 6.00042 6.726C6.02995 6.72519 6.05948 6.72175 6.0884 6.71568H8.07156V10.4023C8.07156 10.6883 8.30335 10.9201 8.58934 10.9201C8.87513 10.9201 9.10713 10.6883 9.10713 10.4023V6.71568H13.4668C13.4958 6.72195 13.5253 6.72559 13.5548 6.726C13.5843 6.72519 13.6139 6.72175 13.6428 6.71568H15.626V10.4023C15.626 10.6883 15.8577 10.9201 16.1437 10.9201C16.4297 10.9201 16.6615 10.6883 16.6615 10.4023V6.71568H19.3075V20.4163Z" fill="black"/>
</svg>
