<svg xmlns="http://www.w3.org/2000/svg" width="38.969" height="41" viewBox="0 0 38.969 41">
  <defs>
    <style>
      .cls-1 {
        fill: #2a2928;
        fill-rule: evenodd;
      }
    </style>
  </defs>
  <path id="icon" class="cls-1" d="M800.434,1560.98a0.487,0.487,0,0,1-.358-0.15l-11.037-11.67a16.747,16.747,0,0,1-10.667,4,16.52,16.52,0,1,1,11.605-4.88l-0.085.12-0.011.15,10.91,11.58a0.506,0.506,0,0,1-.013.71A0.494,0.494,0,0,1,800.434,1560.98Zm-22.062-40a15.586,15.586,0,1,0,15.407,15.58A15.514,15.514,0,0,0,778.372,1520.98Z" transform="translate(-761.969 -1519.97)"/>
</svg>
